<svg xmlns="http://www.w3.org/2000/svg" width="1247.3" height="623.7" viewBox="0 0 1247.3 623.7"><defs><style>.cls-1{isolation:isolate;}.cls-2{fill:#67a5b5;mix-blend-mode:screen;}.cls-3{fill:#f69885;}.cls-4{fill:#f47c68;}.cls-5{fill:#eb6855;}.cls-6{fill:#fff3e7;}.cls-7{fill:#995e4c;}.cls-8{fill:#7e4435;}.cls-9{fill:#8b5446;}.cls-10{fill:#fff;}.cls-11{fill:#f9b733;}.cls-12{fill:#e65d5b;}.cls-13{fill:#ce4144;}.cls-14{fill:#a6503d;}.cls-15{fill:#723d37;}.cls-16{fill:#e18a74;}.cls-17{fill:#f7997d;}.cls-18{fill:#aa5d49;}.cls-19{fill:#f28c27;}.cls-20{fill:#4f4671;}.cls-21{fill:#342a4e;}.cls-22{fill:#231f20;}</style></defs><g class="cls-1"><g id="Layer_2" data-name="Layer 2"><g id="Capa_1" data-name="Capa 1"><rect class="cls-2" width="1247.3" height="623.67"/><path class="cls-3" d="M161.4,619.5l13.7-113.7s-11.9-19.2-19.7-35.5a97.2,97.2,0,0,1-5.8-15c-3.2-13.4-2.3-33.7-2-39.7.1-1.1.1-1.7.1-1.7l71.2,8.9-2.2,60.9-.5,12.7,5.3,123.1Z"/><path class="cls-4" d="M218.9,422.8l-2.2,60.9c-.1.2-.1.3-.2.4a24.3,24.3,0,0,1-32.8,10c-11-5.8-20.4-14.3-28.3-23.8a97.2,97.2,0,0,1-5.8-15c-3.2-13.4-2.3-33.7-2-39.7.1-1.1.1-1.7.1-1.7Z"/><path class="cls-5" d="M210,454.7H155.8a1.1,1.1,0,0,1,0-2.2H210a1.1,1.1,0,0,1,0,2.2Z"/><path class="cls-6" d="M73.1,448h207V176.9L73.5,176S76.7,448,73.1,448Z"/><path class="cls-3" d="M177.3,500.5a12.3,12.3,0,0,0,18.8-2.9c3.4-5.7,2.9-11.9-.8-19.8-6.4-13.8-15.8-17.7-15.8-17.7s8.8-16,5.1-26.4-8.5-6.4-9.5-3.1c-1.4,4.9-9.2,22.1-10.7,30.3C161.5,477.4,165.5,489.9,177.3,500.5Z"/><path class="cls-5" d="M178.2,467H178a1,1,0,0,1-.8-1.3c.7-2.8,1.7-5.5,2.6-8.1s1.8-5.1,2.5-7.8a49.8,49.8,0,0,0,1.7-12.6,12.3,12.3,0,0,0-4.9-9.1,1,1,0,0,1-.2-1.5,1.1,1.1,0,0,1,1.5-.3,13.8,13.8,0,0,1,5.7,10.8,45.4,45.4,0,0,1-1.7,13.2c-.7,2.8-1.7,5.5-2.6,8.1a81.4,81.4,0,0,0-2.5,7.9A1.2,1.2,0,0,1,178.2,467Z"/><path class="cls-5" d="M192.4,502.8a1,1,0,0,1-.9-.4,1,1,0,0,1,.2-1.5,14.4,14.4,0,0,0,5.3-9.7,25.8,25.8,0,0,0-1.6-11.5,33.6,33.6,0,0,0-6.1-10.9,20,20,0,0,0-9.9-6.1,1,1,0,0,1-.8-1.3,1.2,1.2,0,0,1,1.4-.8,21.2,21.2,0,0,1,10.9,6.8,33.5,33.5,0,0,1,6.6,11.6,27,27,0,0,1,1.6,12.5,15.9,15.9,0,0,1-6.1,11.1A.7.7,0,0,1,192.4,502.8Z"/><path class="cls-5" d="M197.3,509.3a13.9,13.9,0,0,1-5.7-1.2,1.1,1.1,0,0,1-.5-1.5,1,1,0,0,1,1.4-.5,11.8,11.8,0,0,0,9.4,0,1,1,0,0,1,1.4.6,1,1,0,0,1-.5,1.4A13,13,0,0,1,197.3,509.3Z"/><path class="cls-5" d="M198.6,514.1a8.6,8.6,0,0,1-4.1-1,1,1,0,0,1-.5-1.4,1.1,1.1,0,0,1,1.5-.5,7.2,7.2,0,0,0,4.8.5,1.1,1.1,0,0,1,1.3.8,1.1,1.1,0,0,1-.8,1.3A8.3,8.3,0,0,1,198.6,514.1Z"/><path class="cls-7" d="M719.4,618.2c-1.1-88.6-2.9-176.4-2.9-176.4l-38-7.5-45,183.9Z"/><path class="cls-8" d="M659.7,608.8a1.1,1.1,0,0,1-.7-.3,17.5,17.5,0,0,0-13.8-3.3,1.3,1.3,0,0,1-1.5-1,1.2,1.2,0,0,1,1-1.4,19.5,19.5,0,0,1,15.8,3.8,1.2,1.2,0,0,1,.2,1.7A1.2,1.2,0,0,1,659.7,608.8Z"/><path class="cls-7" d="M674.7,432.2a21.9,21.9,0,0,0,2.8,9.6c7.3,12.8,26.3,17.7,37,9,18-14.6,21.5-39.1,21.5-39.1-.9-12.6-11.3-18.4-24.4-24.8l-1-.5C697.1,379.9,673.4,411.5,674.7,432.2Z"/><path class="cls-9" d="M674.7,431.8a22.3,22.3,0,0,0,2.8,9.6h33.6a5.8,5.8,0,0,0,5.7-5.4l.9-18,10.7-10.5-8.8-6.7-8-14.3-1-.5C697.1,379.5,673.4,411.1,674.7,431.8Z"/><path class="cls-7" d="M469.4,618.2l-45-183.9-38,7.5s-1.8,87.8-2.9,176.4Z"/><path class="cls-8" d="M435.7,607.6a1.4,1.4,0,0,1-1.1-.6,1.3,1.3,0,0,1,.4-1.7,18.2,18.2,0,0,1,18.2-1.2,1.2,1.2,0,0,1,.5,1.6,1.2,1.2,0,0,1-1.6.6,15.8,15.8,0,0,0-15.7,1.1Z"/><path class="cls-7" d="M428.2,432.2a22,22,0,0,1-2.9,9.6c-7.2,12.8-26.2,17.7-36.9,9-18-14.6-21.5-39.1-21.5-39.1.8-12.6,11.3-18.4,24.4-24.8l.9-.5C405.8,379.9,429.5,411.5,428.2,432.2Z"/><path class="cls-9" d="M428.2,431.8a22.4,22.4,0,0,1-2.9,9.6H391.8a5.6,5.6,0,0,1-5.7-5.4l-.9-18-10.8-10.5,8.9-6.7,8-14.3.9-.5C405.8,379.5,429.5,411.1,428.2,431.8Z"/><rect class="cls-10" x="391.9" y="248.8" width="318.2" height="186.02"/><path class="cls-7" d="M404.9,399.5s4.9.9,6-3.1c2.8-10.1-10.1-19-18.8-22.4v-7.3s11.5,10.8,13.9,5.3-4.6-13.1-11.5-17.6-11.6-1.7-12.8,1.4-1.7,8.6,5.2,18.6c-3.6,1.4-6.4,3.6-5.7,11.4-5.5,1.2-18.6,11-13.8,28.1h.2a22.7,22.7,0,0,1,22.9,2.7c2.2,1.7,4.3,3,5.5,3.2,3.5.6,7.1-.7,6.7-6.3C407.6,411.3,409.4,405.9,404.9,399.5Z"/><path class="cls-8" d="M396.9,421.7a7.1,7.1,0,0,1-2.1-.3,17.8,17.8,0,0,1-7.1-3.9,1.2,1.2,0,1,1,1.7-1.7,15.9,15.9,0,0,0,6,3.2c1.6.4,3.9.1,4.6-1.1a5.6,5.6,0,0,0,.6-5c-1.5-4.8-8.4-9.8-20.3-15.1l-1.1-.5a1.2,1.2,0,0,1-.6-1.6,1.3,1.3,0,0,1,1.7-.6l1,.5c4.7,2,19,8.3,21.7,16.5a8.9,8.9,0,0,1-.9,7.1A5.9,5.9,0,0,1,396.9,421.7Z"/><path class="cls-8" d="M386.8,375a1.5,1.5,0,0,1-.9-.4c-3.1-3.3-5.1-6-6.4-10.4s-.2-10.5,4.5-12.8,8.3-.3,10.6.8c6.9,3.4,13.6,10.4,12.9,18.2a4.5,4.5,0,0,1-3.6,4,6.7,6.7,0,0,1-4.9-.7,16.1,16.1,0,0,1-3.6-2.7l-6.4-5.7a1.2,1.2,0,0,1-.1-1.7,1.3,1.3,0,0,1,1.8-.1l6.3,5.7a22.6,22.6,0,0,0,3.1,2.3,4.9,4.9,0,0,0,3.2.6,2.5,2.5,0,0,0,1.8-1.9c.5-6.7-5.4-12.8-11.6-15.8-1.9-.9-5.5-2.3-8.4-.8s-4.3,6.3-3.3,9.9,3,6.3,5.9,9.4a1.2,1.2,0,0,1-.1,1.7A.9.9,0,0,1,386.8,375Z"/><path class="cls-8" d="M402.7,414.6a1.4,1.4,0,0,1-1-.5,1.3,1.3,0,0,1,.3-1.7c2.3-1.6,2.9-2.3,3.5-4.7a10.2,10.2,0,0,0-1.2-7.3,21.4,21.4,0,0,0-5.5-5.9,37.9,37.9,0,0,0-13.9-6.6,1.2,1.2,0,0,1-1-1.4,1.3,1.3,0,0,1,1.5-1,39.5,39.5,0,0,1,14.9,7.1,21.9,21.9,0,0,1,6.1,6.6,12.5,12.5,0,0,1,1.5,9.1c-.8,3.1-1.8,4.2-4.5,6.1Z"/><path class="cls-8" d="M406.7,402.1a1.4,1.4,0,0,1-1.2-.9,1.3,1.3,0,0,1,.9-1.5c2-.5,2.6-1.8,2.6-5.3s-1.1-5-3.2-7.9a33.3,33.3,0,0,0-15.1-11.3,1.1,1.1,0,0,1-.7-1.6,1.1,1.1,0,0,1,1.5-.7,35.3,35.3,0,0,1,16.3,12.2q3.6,4.9,3.6,9.3c0,2.3.1,6.6-4.4,7.7Z"/><path class="cls-7" d="M698,399.5s-4.9.9-6-3.1c-2.8-10.1,10-19,18.7-22.4v-7.3s-11.4,10.8-13.8,5.3,4.5-13.1,11.4-17.6,11.7-1.7,12.9,1.4,1.7,8.6-5.2,18.6c3.6,1.4,6.4,3.6,5.7,11.4,5.5,1.2,18.6,11,13.8,28.1h-.2a23,23,0,0,0-23,2.7c-2.1,1.7-4.2,3-5.4,3.2-3.5.6-7.1-.7-6.8-6.3C695.3,411.3,693.5,405.9,698,399.5Z"/><path class="cls-8" d="M706,421.7a5.9,5.9,0,0,1-5.2-2.5,8.2,8.2,0,0,1-.9-7.1c2.7-8.2,17-14.5,21.7-16.5l1-.5a1.3,1.3,0,0,1,1.7.6,1.2,1.2,0,0,1-.6,1.6l-1.1.5c-12,5.3-18.8,10.3-20.3,15.1a5.6,5.6,0,0,0,.6,5c.7,1.2,2.9,1.5,4.6,1.1a15.9,15.9,0,0,0,6-3.2,1.2,1.2,0,1,1,1.7,1.7,17.8,17.8,0,0,1-7.1,3.9A7.6,7.6,0,0,1,706,421.7Z"/><path class="cls-8" d="M716.1,375a.9.9,0,0,1-.8-.4,1.2,1.2,0,0,1-.1-1.7c2.9-3.1,4.7-5.5,5.8-9.4s.2-8.2-3.2-9.9-6.5-.1-8.4.8c-6.2,3-12.1,9.1-11.6,15.8a2.5,2.5,0,0,0,1.8,1.9,4.6,4.6,0,0,0,3.1-.6,18.6,18.6,0,0,0,3.2-2.3l6.3-5.7a1.2,1.2,0,0,1,1.6,1.8l-6.3,5.7a16.1,16.1,0,0,1-3.6,2.7,6.9,6.9,0,0,1-5,.7,4.8,4.8,0,0,1-3.6-4c-.6-7.8,6.1-14.8,13-18.2,2.3-1.1,6.7-2.7,10.6-.8s5.8,8.2,4.5,12.8-3.3,7.1-6.4,10.4A1.8,1.8,0,0,1,716.1,375Z"/><path class="cls-8" d="M700.1,414.6l-.7-.2c-2.6-1.9-3.6-3-4.4-6.1a12,12,0,0,1,1.5-9.1,21.9,21.9,0,0,1,6.1-6.6,39.5,39.5,0,0,1,14.9-7.1,1.2,1.2,0,0,1,1.4,1,1.1,1.1,0,0,1-.9,1.4,37.9,37.9,0,0,0-13.9,6.6,18.7,18.7,0,0,0-5.5,5.9,9.7,9.7,0,0,0-1.2,7.3c.6,2.4,1.2,3.1,3.5,4.7a1.4,1.4,0,0,1,.3,1.7A1.6,1.6,0,0,1,700.1,414.6Z"/><path class="cls-8" d="M696.4,401.2h-.3c-4-.8-6.2-5.3-5.9-8.9s1.8-6.2,4.7-9.4a38.3,38.3,0,0,1,16.6-10.5,1.3,1.3,0,1,1,.8,2.4,34.6,34.6,0,0,0-15.6,9.8c-2.5,2.8-3.9,5.4-4.1,7.9s1.4,5.7,4,6.3a1.2,1.2,0,0,1,1,1.4A1.3,1.3,0,0,1,696.4,401.2Z"/><path class="cls-11" d="M380.5,461.6c1.8-.6,50.3-13.2,50.3-13.2l1.2,4.8s-50.3,17.4-50.3,15.6A58.1,58.1,0,0,0,380.5,461.6Z"/><path class="cls-11" d="M380.5,473.5l52.4-17.2,1.2,4.8s-52.4,21.4-52.4,19.6A58.1,58.1,0,0,0,380.5,473.5Z"/><path class="cls-12" d="M809.4,368.7s-1.5,11.7,10.2,26,24,30.6,19.9,50-4.1,35.7,7.7,48.4,13.2,31.1,5.1,58.1,19.3,36.7,16.3,68.3H708s-3.1-15.3,4.1-42.3,16.8-36.2,9.7-54.5-2.1-40.8,6.1-55.1,15.8-24.5,12.7-42.3-1.4-32.5,14.4-48.1S809.4,368.7,809.4,368.7Z"/><path class="cls-4" d="M787.2,358.9H762.9s-16.4-10.9-13.5-28.5,13.5-35,28-34.7,33.6,14.1,34.3,28.1S806.1,358.6,787.2,358.9Z"/><path class="cls-13" d="M757.7,357.3,807,355a3.2,3.2,0,0,1,3.4,3.3l-.3,16.8-55.2,2.1-.3-16.7A3.1,3.1,0,0,1,757.7,357.3Z"/><polygon class="cls-14" points="762.5 479.3 780.2 479.3 780.6 232.5 780.9 30.7 780.9 18.2 763.3 18.2 763.3 30.7 762.9 232.2 762.5 479.3"/><polygon class="cls-15" points="762.9 222.5 763.3 30.7 780.9 30.7 780.6 222.5 762.9 222.5"/><path class="cls-3" d="M781.3,291.5c.4-3.7-7.2-5.5-12.7-6.1s-22.8-5.7-27.4-1.1-3.9,12,.6,14.1c-3.9,6.3-3.7,12.4,2.2,13.8-2.4,5.1-2.2,14.7,4.7,15.1-2.4,8.8,1.8,12.9,6.9,13.6,10,1.5,21-1.6,23.8-4.6s1.1-8.8-4.8-10c0,0,6.1-.2,6.1-6.5,0-4.3-5.5-5.9-5.5-5.9s6.1-2.1,5.1-9.6C783.1,299.6,781.3,291.5,781.3,291.5Z"/><path class="cls-3" d="M799.9,350.7a16.4,16.4,0,0,0,4-2.9c6.8-6.5,8.5-18.2,7.7-27.1-1.8-19.3-12.5-24.4-17.4-26.9s-28.7-5.2-32.4-2.4-2.4,10,3.7,13.4,16.5,1.5,21,4.6,5.8,6.1,5.8,6.1-7.3,3.4-9.1,8.8c-3,8.9-4.2,25.9,8.4,27.8A14.1,14.1,0,0,0,799.9,350.7Z"/><polygon class="cls-6" points="909.1 44.6 583.6 44.6 580.9 212.5 909.7 212.5 909.1 44.6"/><path class="cls-5" d="M757.2,328.8c-2.6,0-5.2,0-7.7-.2a1.1,1.1,0,0,1,.2-2.2,107,107,0,0,0,24.7-1.1,1,1,0,0,1,1.2.9,1.1,1.1,0,0,1-.9,1.3A110.9,110.9,0,0,1,757.2,328.8Z"/><path class="cls-5" d="M766.9,314.8a161.8,161.8,0,0,1-20.9-1.4,1,1,0,0,1-.9-1.2,1.1,1.1,0,0,1,1.2-1,144.5,144.5,0,0,0,27.9,1.2,1.1,1.1,0,0,1,1.1,1.1,1,1,0,0,1-1,1.1C771.8,314.8,769.3,314.8,766.9,314.8Z"/><path class="cls-5" d="M794.2,321a1.2,1.2,0,0,1-1.1-.7,15.6,15.6,0,0,0-8.6-9.7,28.1,28.1,0,0,0-8.3-2.1h-.6a40.8,40.8,0,0,1-8.4-1.9,14,14,0,0,1-7.5-6c-1.7-3.2-1.5-7.2.6-9.7a1.1,1.1,0,0,1,1.5-.1,1,1,0,0,1,.2,1.5,6.7,6.7,0,0,0-.4,7.2,11.9,11.9,0,0,0,6.3,5,37,37,0,0,0,8,1.8h.6a33.3,33.3,0,0,1,8.9,2.3,18.4,18.4,0,0,1,9.8,11,1.1,1.1,0,0,1-.7,1.4Z"/><path class="cls-5" d="M760.7,301.2h-.1l-15.7-1.8a1.1,1.1,0,0,1-1-1.2,1,1,0,0,1,1.2-.9l15.8,1.7a1.1,1.1,0,0,1-.2,2.2Z"/><path class="cls-13" d="M739.3,507.8a1.3,1.3,0,0,1-1-.4,14.7,14.7,0,0,1-2.6-13.7,1.3,1.3,0,0,1,1.6-.8,1.2,1.2,0,0,1,.8,1.5,12,12,0,0,0,2.1,11.4,1.3,1.3,0,0,1-.1,1.8Z"/><path class="cls-13" d="M745,505.5a1.1,1.1,0,0,1-.8-.3,9.3,9.3,0,0,1-2.6-9.6,1.2,1.2,0,0,1,1.5-.8,1.2,1.2,0,0,1,.8,1.6,7.2,7.2,0,0,0,1.9,7,1.2,1.2,0,0,1,.1,1.7A1.1,1.1,0,0,1,745,505.5Z"/><path class="cls-13" d="M814.7,428.5h-.1a1.2,1.2,0,0,1-1.1-1.3,16.7,16.7,0,0,0-3.6-12.2,1.2,1.2,0,0,1,.2-1.7,1.2,1.2,0,0,1,1.7.1,19.2,19.2,0,0,1,4.2,14A1.3,1.3,0,0,1,814.7,428.5Z"/><path class="cls-13" d="M821.5,424.6h0a1.2,1.2,0,0,1-1.2-1.2,12.5,12.5,0,0,0-2.2-7.5,1.2,1.2,0,1,1,2-1.4,15.1,15.1,0,0,1,2.7,9A1.3,1.3,0,0,1,821.5,424.6Z"/><path class="cls-13" d="M799.7,546a1.2,1.2,0,0,1-1-.5,1.2,1.2,0,0,1,.4-1.7,13.2,13.2,0,0,0,5.6-13.7,1.3,1.3,0,0,1,2.5-.5,15.9,15.9,0,0,1-6.8,16.3Z"/><path class="cls-13" d="M806.5,547.6a1.2,1.2,0,0,1-1-.7,1.1,1.1,0,0,1,.4-1.6c3.4-1.9,5.2-7.2,4.6-10.9a1.2,1.2,0,0,1,1-1.4,1.2,1.2,0,0,1,1.4,1.1c.7,4.5-1.3,10.9-5.8,13.3Z"/><path class="cls-13" d="M744.1,589.1a1.4,1.4,0,0,1-1-.5,21.8,21.8,0,0,1-4-16.4,1.2,1.2,0,0,1,1.4-1,1.2,1.2,0,0,1,1,1.4,19.7,19.7,0,0,0,3.6,14.5,1.3,1.3,0,0,1-.3,1.8Z"/><path class="cls-13" d="M748.8,585.3a1.2,1.2,0,0,1-.9-.4c-2.2-2.4-3.6-7.3-2.2-10.2a1.2,1.2,0,0,1,2.2,1c-.8,1.8.1,5.7,1.8,7.6a1.2,1.2,0,0,1,0,1.7A1.6,1.6,0,0,1,748.8,585.3Z"/><path class="cls-13" d="M826.8,592a1.1,1.1,0,0,1-.8-.3,1.4,1.4,0,0,1-.1-1.8,11.9,11.9,0,0,0,2.6-11.8,1.3,1.3,0,0,1,2.4-.8,14.6,14.6,0,0,1-3.2,14.3A1,1,0,0,1,826.8,592Z"/><path class="cls-13" d="M834.6,590.6a1.3,1.3,0,0,1-.8-.3,1.2,1.2,0,0,1-.2-1.7,10.4,10.4,0,0,0,2.1-9.1,1.3,1.3,0,0,1,.9-1.5,1.1,1.1,0,0,1,1.5.9,13.2,13.2,0,0,1-2.5,11.2A1.4,1.4,0,0,1,834.6,590.6Z"/><path class="cls-13" d="M751.4,409.6a1.4,1.4,0,0,1-1.1-.6,14.8,14.8,0,0,1-.5-13.7,1.2,1.2,0,0,1,1.6-.6,1.2,1.2,0,0,1,.6,1.7,12.4,12.4,0,0,0,.5,11.4,1.3,1.3,0,0,1-.5,1.7Z"/><path class="cls-16" d="M972,455.2s14.8-15.9,29.8-20.5,24.9-1.5,28.8-3,7-2.9,9.2-.2-.5,11.7-9.2,13.5S972,455.2,972,455.2Z"/><path class="cls-16" d="M1085.1,380.3c0,.3-8.3-25.9-27-37.2s-28.8-3.6-36.1-1.8-15.6-3.9-19.3-1.3-1.1,11.8,10.4,15.7S1083.6,373.1,1085.1,380.3Z"/><polygon class="cls-14" points="1008.1 565.1 1030.8 565.1 1031.4 318.3 1031.8 116.5 1031.8 104 1009.1 104 1009.1 116.5 1008.7 318 1008.1 565.1"/><polygon class="cls-15" points="1008.7 308.3 1009.1 116.5 1031.8 116.5 1031.4 308.3 1008.7 308.3"/><polygon class="cls-10" points="1141.3 127.5 889.2 127.5 887.2 295.3 1141.8 295.3 1141.3 127.5"/><path class="cls-17" d="M821.9,619.4S961.1,451.8,989.8,442.5c17.4-6.6,50.2-4.9,53.9,1.5,1.3,2.4,0,10.1-5.5,10.9,0,0,4.4,4,3.7,8.1s-4.6,5.9-4.6,5.9a8.7,8.7,0,0,1,2.6,5.2c1.1,5.5-3.2,7.3-3.2,7.3s6.9,1.3,6.5,10.9c-.3,5.7-4.1,8-12.2,8v-5.4s-24.9,4.7-36.4.2c-13.8,21-72.7,124.7-72.7,124.7Z"/><path class="cls-18" d="M1039.2,456.2a1.2,1.2,0,0,1-1.2-1,1.2,1.2,0,0,1,1-1.4,4.7,4.7,0,0,0,3.6-3.2,6.4,6.4,0,0,0-.9-5.9c-2.1-2.6-8.6-3.7-12.4-4.3h-.6c-16.1-2.6-29.1-2.3-43.9,6.9a1.2,1.2,0,0,1-1.7-.4,1.2,1.2,0,0,1,.4-1.7c15.5-9.6,28.9-9.9,45.6-7.3h.6c4.4.7,11.2,1.8,14,5.2a8.8,8.8,0,0,1,1.2,8.2,7.3,7.3,0,0,1-5.4,4.8Z"/><path class="cls-18" d="M1010.5,497.5a104.1,104.1,0,0,1-18.4-1.7,1.2,1.2,0,0,1-.9-1.4,1.2,1.2,0,0,1,1.4-1,99.9,99.9,0,0,0,42.5-1.5,1.3,1.3,0,0,1,1.5.9,1.1,1.1,0,0,1-.9,1.5A101.8,101.8,0,0,1,1010.5,497.5Z"/><path class="cls-18" d="M1035.2,470.7a1.4,1.4,0,0,1-1.2-1,1.2,1.2,0,0,1,1-1.4,7.2,7.2,0,0,0,5.4-5.2,7.3,7.3,0,0,0-2.3-7.1,1.2,1.2,0,1,1,1.5-1.9,9.5,9.5,0,0,1-4.1,16.6Z"/><path class="cls-18" d="M1035.6,483.6a1.2,1.2,0,0,1-1.1-.7,1.2,1.2,0,0,1,.6-1.6,6.1,6.1,0,0,0,3.6-5,6.4,6.4,0,0,0-2.4-5.6,1.2,1.2,0,0,1-.3-1.7,1.4,1.4,0,0,1,1.8-.2,8.6,8.6,0,0,1,3.3,7.8,8.4,8.4,0,0,1-5,6.9Z"/><path class="cls-11" d="M952.4,569.5,940.6,589l-18.7,30.8H815.3a776.4,776.4,0,0,1,64.4-75.2c5.9-6,12.1-12.1,18.4-18.1C902.5,529.7,952.4,569.5,952.4,569.5Z"/><path class="cls-19" d="M952.4,569.5,940.6,589l-60.9-44.5c5.9-6,12.1-12.1,18.4-18.1C902.5,529.7,952.4,569.5,952.4,569.5Z"/><path class="cls-17" d="M1049.8,350.6s-35.8-1.4-39.3-1c-5.4.6-10.3,7.5-4.6,14.5-4.7,2-7.2,12.5.4,16.3-5.3,2.6-4.4,12.6.4,13.9-8.3,2.4-7.9,9.8-5.4,13.6a14.4,14.4,0,0,0,7.2,5.3l.2-7.6,9.8.2s35.6,19.6,58.4.7C1095.5,391.1,1079.7,351,1049.8,350.6Z"/><path class="cls-18" d="M1007.2,365a1.3,1.3,0,0,1-.8-.3,10,10,0,0,1-3.2-9.4,9.9,9.9,0,0,1,6.9-7.1,1.4,1.4,0,0,1,1.5.9,1.2,1.2,0,0,1-.9,1.5,7.4,7.4,0,0,0-5.1,5.3,7.3,7.3,0,0,0,2.4,6.9,1.2,1.2,0,0,1,.2,1.7A1.4,1.4,0,0,1,1007.2,365Z"/><path class="cls-18" d="M1008,382h-.3a10.1,10.1,0,0,1-7.5-8.7,10,10,0,0,1,5.6-10.1,1.2,1.2,0,0,1,1.6.5,1.2,1.2,0,0,1-.6,1.7,8,8,0,0,0-4.2,7.6,7.9,7.9,0,0,0,5.7,6.7,1.1,1.1,0,0,1,.9,1.5A1.2,1.2,0,0,1,1008,382Z"/><path class="cls-17" d="M1009.1,396.1h-.4a9.8,9.8,0,0,1-7.1-8.9,9.1,9.1,0,0,1,2.6-6.4,4.8,4.8,0,0,1,4-1.2,1.2,1.2,0,0,1,1,1.4,1.2,1.2,0,0,1-1.4,1.1,2.5,2.5,0,0,0-2,.6,6.5,6.5,0,0,0-1.7,4.5,7.5,7.5,0,0,0,5.3,6.6,1.2,1.2,0,0,1,.9,1.5A1.3,1.3,0,0,1,1009.1,396.1Z"/><path class="cls-17" d="M1089.8,391c-11.8-39.3-40-40.4-40-40.4l-1.4,56.1s.3,64.2,0,78.6-.6,133.7-.6,133.7h92C1126.2,515.5,1101.7,430.3,1089.8,391Z"/><path class="cls-11" d="M1141.8,619.3h-98.7l1.9-77.4.7-28.6,72.8-21.1s2.7,11.6,6.3,28.2C1130.9,549.3,1139.8,593.4,1141.8,619.3Z"/><path class="cls-19" d="M1124.8,520.4,1045,541.9l.7-28.6,72.8-21.1S1121.2,503.8,1124.8,520.4Z"/><path class="cls-18" d="M1047.5,416.1a50.5,50.5,0,0,1-29.3-9.3h-10.3a1.3,1.3,0,0,1-1.2-1.3,1.2,1.2,0,0,1,1.2-1.2h11.2l.3.2a47.8,47.8,0,0,0,40,7.7,1.2,1.2,0,0,1,1.5.9,1.4,1.4,0,0,1-.9,1.5A52.8,52.8,0,0,1,1047.5,416.1Z"/><path class="cls-4" d="M298.3,358.9h24.3S339,348,336.1,330.4s-13.5-35-28-34.7-33.6,14.1-34.3,28.1S279.4,358.6,298.3,358.9Z"/><path class="cls-20" d="M329.7,376.3l.4-20.9-57.9-1.5.5,22.2s-11.7,1.4-13.9,15.7-20,202-21.5,225.7H356.2S343.9,390.8,329.7,376.3Z"/><path class="cls-21" d="M277.4,376.3a1.2,1.2,0,0,1-1.1-1.1l-.9-19.7a1,1,0,0,1,1-1.1,1.1,1.1,0,0,1,1.2,1l.9,19.7a1.1,1.1,0,0,1-1,1.2Z"/><path class="cls-21" d="M282.3,375.9a1,1,0,0,1-1.1-1l-.5-19.7a1,1,0,0,1,1-1.2,1.3,1.3,0,0,1,1.2,1.1l.5,19.7a1.1,1.1,0,0,1-1.1,1.1Z"/><path class="cls-21" d="M288.2,376.2a1,1,0,0,1-1.1-1V356.1a1.1,1.1,0,1,1,2.2,0v19.1A1,1,0,0,1,288.2,376.2Z"/><path class="cls-21" d="M294.6,376.9h0a1.1,1.1,0,0,1-1.1-1.1l.3-19.1a1.2,1.2,0,0,1,1.1-1.1,1.1,1.1,0,0,1,1.1,1.1l-.3,19.1A1.1,1.1,0,0,1,294.6,376.9Z"/><path class="cls-21" d="M300.2,376.2h-.1a1.1,1.1,0,0,1-1-1.2l1.5-18.1a1.1,1.1,0,0,1,1.2-1,1.1,1.1,0,0,1,1,1.2l-1.5,18.1A1,1,0,0,1,300.2,376.2Z"/><path class="cls-21" d="M308.3,376.6h-.1a1.1,1.1,0,0,1-1-1.2L309,356a1.2,1.2,0,0,1,1.2-1,1.1,1.1,0,0,1,1,1.2l-1.8,19.4A1.3,1.3,0,0,1,308.3,376.6Z"/><path class="cls-21" d="M317.5,375.9h-.1a1,1,0,0,1-1-1.1l.2-17.2a1.1,1.1,0,0,1,1.1-1.1h0a1.1,1.1,0,0,1,1.1,1.1l-.2,17.3A1.1,1.1,0,0,1,317.5,375.9Z"/><path class="cls-21" d="M324.2,375.9h0a1.1,1.1,0,0,1-1.1-1.1l.3-15.9a1.2,1.2,0,0,1,1.2-1.1,1,1,0,0,1,1,1.1l-.3,16A1,1,0,0,1,324.2,375.9Z"/><path class="cls-21" d="M329.5,376.9h-56a1,1,0,0,1-1.1-1.1,1,1,0,0,1,1.1-1h56a1,1,0,0,1,1.1,1A1,1,0,0,1,329.5,376.9Z"/><polygon class="cls-14" points="323 479.3 305.3 479.3 304.9 232.5 304.6 30.7 304.6 18.2 322.2 18.2 322.2 30.7 322.6 232.2 323 479.3"/><polygon class="cls-15" points="322.6 222.5 322.2 30.7 304.6 30.7 304.9 222.5 322.6 222.5"/><path class="cls-3" d="M304.2,291.5c-.4-3.7,7.1-5.5,12.6-6.1s22.8-5.7,27.5-1.1,3.9,12-.6,14.1c3.9,6.3,3.7,12.4-2.2,13.8,2.4,5.1,2.2,14.7-4.7,15.1,2.4,8.8-1.9,12.9-6.9,13.6-10,1.5-21-1.6-23.9-4.6s-1-8.8,4.9-10c0,0-6.1-.2-6.1-6.5,0-4.3,5.5-5.9,5.5-5.9s-6.1-2.1-5.1-9.6C302.4,299.6,304.2,291.5,304.2,291.5Z"/><path class="cls-3" d="M285.6,350.7a16.4,16.4,0,0,1-4-2.9c-6.8-6.5-8.6-18.2-7.7-27.1,1.8-19.3,12.5-24.4,17.4-26.9s28.7-5.2,32.4-2.4,2.4,10-3.7,13.4-16.5,1.5-21.1,4.6-5.8,6.1-5.8,6.1,7.4,3.4,9.2,8.8c3,8.9,4.2,25.9-8.4,27.8A14.1,14.1,0,0,1,285.6,350.7Z"/><polygon class="cls-10" points="192.7 41.2 431.2 41.2 433.1 209 192.2 209 192.7 41.2"/><path class="cls-21" d="M313.9,533.4a1.1,1.1,0,0,1-.8-.3c-7.7-7.3-15.8-15-21.4-24.6a129.2,129.2,0,0,1-9.5-19.1c-7-17.8-9.9-37-12.1-53.5a1.1,1.1,0,0,1,1-1.2,1,1,0,0,1,1.2.9c2.1,16.4,5,35.4,11.9,53a134.7,134.7,0,0,0,9.3,18.8c5.5,9.4,13.5,16.9,21.1,24.1a1.1,1.1,0,0,1,.1,1.6A1.1,1.1,0,0,1,313.9,533.4Z"/><path class="cls-21" d="M303,528.7a.9.9,0,0,1-.7-.3,104.1,104.1,0,0,1-32.1-43.7,1.2,1.2,0,0,1,.6-1.4,1.3,1.3,0,0,1,1.5.6,101.9,101.9,0,0,0,31.3,42.8,1.1,1.1,0,0,1,.2,1.6A1.2,1.2,0,0,1,303,528.7Z"/><path class="cls-21" d="M263.1,603.7a1.1,1.1,0,0,1-1.1-1,1.1,1.1,0,0,1,1-1.2,108.6,108.6,0,0,0,69.9-31.8,1.1,1.1,0,0,1,1.6-.1,1.2,1.2,0,0,1,0,1.6,111.2,111.2,0,0,1-71.4,32.5Z"/><path class="cls-21" d="M301.7,604.6a1.1,1.1,0,0,1-1-.7,1.1,1.1,0,0,1,.6-1.4,53.6,53.6,0,0,0,23.8-17.1,1.2,1.2,0,0,1,1.6-.1,1.1,1.1,0,0,1,.2,1.5,57.3,57.3,0,0,1-24.8,17.8Z"/><path class="cls-5" d="M328.3,328.8a110,110,0,0,1-17.5-1.3,1.1,1.1,0,0,1-.9-1.3,1,1,0,0,1,1.2-.9,107,107,0,0,0,24.7,1.1,1.2,1.2,0,0,1,1.2,1,1.3,1.3,0,0,1-1.1,1.2C333.5,328.8,330.9,328.8,328.3,328.8Z"/><path class="cls-5" d="M318.6,314.8c-2.5,0-4.9,0-7.4-.2a1,1,0,0,1-1-1.1,1.1,1.1,0,0,1,1.1-1.1,144.5,144.5,0,0,0,27.9-1.2,1.1,1.1,0,0,1,1.2,1,1,1,0,0,1-.9,1.2A161.8,161.8,0,0,1,318.6,314.8Z"/><path class="cls-5" d="M291.3,321H291a1.1,1.1,0,0,1-.7-1.4,18.5,18.5,0,0,1,9.7-11,35,35,0,0,1,9-2.3h.6a34.9,34.9,0,0,0,7.9-1.8c2.9-1.1,5.2-2.8,6.3-5a6.5,6.5,0,0,0-.3-7.2,1,1,0,0,1,.2-1.5,1.1,1.1,0,0,1,1.5.1c2.1,2.5,2.3,6.5.6,9.7a14.4,14.4,0,0,1-7.5,6,40.8,40.8,0,0,1-8.4,1.9h-.6a28.1,28.1,0,0,0-8.3,2.1,16.1,16.1,0,0,0-8.7,9.7A1,1,0,0,1,291.3,321Z"/><path class="cls-5" d="M324.7,301.2a1,1,0,0,1-1-1,1,1,0,0,1,.9-1.2l15.8-1.7a1,1,0,0,1,1.2.9,1.1,1.1,0,0,1-1,1.2l-15.7,1.8Z"/><path class="cls-22" d="M715.2,115.9l-27.2.8-.2-44h13.7v31.6l13.4-.3Z"/><path class="cls-22" d="M720.6,116.5V74.2l25.4-.5.2,10.2-12,.3v6h12.6v11.1H734v5.4l12.5-.4.2,9.6Z"/><path class="cls-22" d="M775.2,92.1a12.2,12.2,0,0,1,4,2.9,13.1,13.1,0,0,1,2.1,3.6l.7,2.1a7.8,7.8,0,0,1,.3,2.2,15.6,15.6,0,0,1-.6,4.4,14.2,14.2,0,0,1-1.4,3.6,10.3,10.3,0,0,1-2.4,3.1,19.9,19.9,0,0,1-3.3,2.4,25,25,0,0,1-3.8,1.5,14.1,14.1,0,0,1-4,.5,12.3,12.3,0,0,1-2.7-.2l-2.7-.7a13.4,13.4,0,0,1-2.4-.9l-2.1-1.2a14.2,14.2,0,0,1-4.7-5.8l8.3-5.4.5.9a5.7,5.7,0,0,0,1.1,1.1,6.4,6.4,0,0,0,1.6,1.1,4.6,4.6,0,0,0,2.1.4,2.9,2.9,0,0,0,2.4-1.2,3.5,3.5,0,0,0,1-2.5c0-1.8-1.4-3.2-4.3-4.2a17.9,17.9,0,0,1-4.2-1.9,21.6,21.6,0,0,1-3.3-2.7,12.9,12.9,0,0,1-1.6-1.7,8.3,8.3,0,0,1-1.3-1.8,10.2,10.2,0,0,1-.8-2.3,9.3,9.3,0,0,1-.4-3.1,16.9,16.9,0,0,1,.3-3,12.4,12.4,0,0,1,1-3.1,13.7,13.7,0,0,1,5-5.9,15.6,15.6,0,0,1,9.9-3.1,14.1,14.1,0,0,1,5.7,1.1,14.6,14.6,0,0,1,3.8,2.3l2.3,2.4-7,6.7a1.5,1.5,0,0,0-.7-.7l-1.1-.6-1.3-.5-1.2-.2a4.5,4.5,0,0,0-3,1,3.6,3.6,0,0,0-.9,2.4,4,4,0,0,0,2.1,3.4,3.9,3.9,0,0,0,1.3.6l1.6.8,1.9,1Z"/><path class="cls-22" d="M807.9,92.1a12.2,12.2,0,0,1,4,2.9,13.1,13.1,0,0,1,2.1,3.6l.7,2.1a7.8,7.8,0,0,1,.3,2.2,15.6,15.6,0,0,1-.6,4.4,14.2,14.2,0,0,1-1.4,3.6,10.3,10.3,0,0,1-2.4,3.1,19.9,19.9,0,0,1-3.3,2.4,25,25,0,0,1-3.8,1.5,14.1,14.1,0,0,1-4,.5,12.3,12.3,0,0,1-2.7-.2l-2.7-.7a13.4,13.4,0,0,1-2.4-.9l-2.1-1.2a14.2,14.2,0,0,1-4.7-5.8l8.3-5.4.5.9a5.7,5.7,0,0,0,1.1,1.1,6.4,6.4,0,0,0,1.6,1.1,4.6,4.6,0,0,0,2.1.4,2.9,2.9,0,0,0,2.4-1.2,3.5,3.5,0,0,0,1-2.5c0-1.8-1.4-3.2-4.3-4.2a17.9,17.9,0,0,1-4.2-1.9,21.6,21.6,0,0,1-3.3-2.7,12.9,12.9,0,0,1-1.6-1.7,8.3,8.3,0,0,1-1.3-1.8,10.2,10.2,0,0,1-.8-2.3,9.3,9.3,0,0,1-.4-3.1,16.9,16.9,0,0,1,.3-3,12.4,12.4,0,0,1,1-3.1,13.7,13.7,0,0,1,5-5.9,15.6,15.6,0,0,1,9.9-3.1,14.1,14.1,0,0,1,5.7,1.1,14.6,14.6,0,0,1,3.8,2.3L814,77l-7,6.7a1.5,1.5,0,0,0-.7-.7l-1.1-.6-1.3-.5-1.2-.2a4.5,4.5,0,0,0-3,1,3.6,3.6,0,0,0-.9,2.4,4,4,0,0,0,2.1,3.4,3.9,3.9,0,0,0,1.3.6l1.6.8,1.9,1Z"/><path class="cls-22" d="M691.1,133.7l-.5,41.5-17.2.4-10.9-24.4v24.7H651.8V133.1h13.4l13,28.8.2-28Z"/><path class="cls-22" d="M719.3,130.9a21.8,21.8,0,0,1,9.3,1.9,20.8,20.8,0,0,1,7.1,5.2,22.7,22.7,0,0,1,4.6,7.2,23.7,23.7,0,0,1,1.5,8.2,23.4,23.4,0,0,1-1.2,7.4,21.1,21.1,0,0,1-3.7,6.7l-3.7,3.7a22.4,22.4,0,0,1-13,4.1,25.1,25.1,0,0,1-7.2-1.1,23.7,23.7,0,0,1-6.6-3.6l-4.1-4.1a21,21,0,0,1-3.5-6.6,21.6,21.6,0,0,1-1.2-7.1,22.4,22.4,0,0,1,3.5-12l6.8-6.9a22.8,22.8,0,0,1,5.6-2.3A22.5,22.5,0,0,1,719.3,130.9Zm-8.2,22.8a9.8,9.8,0,0,0,.7,3.4,10.3,10.3,0,0,0,1.9,2.6,9.5,9.5,0,0,0,2.7,1.7,8.1,8.1,0,0,0,7.3-.6l3-2.9a8.5,8.5,0,0,0,1.2-4.3,8.8,8.8,0,0,0-.7-3.2,8.3,8.3,0,0,0-1.9-2.6,6.8,6.8,0,0,0-2.6-1.8,7.1,7.1,0,0,0-3.2-.7,7.2,7.2,0,0,0-3.3.7,6.8,6.8,0,0,0-2.6,1.8,6.4,6.4,0,0,0-1.8,2.7A6.8,6.8,0,0,0,711.1,153.7Z"/><path class="cls-22" d="M747.9,133.7h14.4v42.9H747.9Z"/><path class="cls-22" d="M790.9,152.1a13.3,13.3,0,0,1,4,2.9,15.8,15.8,0,0,1,2,3.6,17.2,17.2,0,0,1,.7,2.1,7.8,7.8,0,0,1,.3,2.2,20.4,20.4,0,0,1-.5,4.4,19.2,19.2,0,0,1-1.4,3.6,10.3,10.3,0,0,1-2.4,3.1,17.2,17.2,0,0,1-3.4,2.4,25,25,0,0,1-3.8,1.5,13.7,13.7,0,0,1-4,.5,12.3,12.3,0,0,1-2.7-.2l-2.7-.7-2.4-.9-2-1.2a13.7,13.7,0,0,1-4.8-5.8l8.4-5.4a2.1,2.1,0,0,0,.5.9,3.5,3.5,0,0,0,1,1.1,9.1,9.1,0,0,0,1.6,1.1,4.6,4.6,0,0,0,2.1.4,3.2,3.2,0,0,0,2.5-1.2,3.9,3.9,0,0,0,1-2.5c0-1.8-1.5-3.2-4.4-4.2a20,20,0,0,1-4.2-1.9,21.6,21.6,0,0,1-3.3-2.7,12.9,12.9,0,0,1-1.6-1.7,5.7,5.7,0,0,1-1.2-1.8,6.9,6.9,0,0,1-.9-2.3,13.5,13.5,0,0,1-.3-3.1c0-.9.1-1.9.2-3a12.4,12.4,0,0,1,1-3.1,14.4,14.4,0,0,1,1.9-3.1,17,17,0,0,1,3.1-2.8,17.8,17.8,0,0,1,4.1-2.2,16.6,16.6,0,0,1,5.9-.9,14,14,0,0,1,5.6,1.1,13.1,13.1,0,0,1,3.8,2.3l2.3,2.4-6.9,6.7a4.6,4.6,0,0,0-.7-.7l-1.2-.6-1.3-.5-1.2-.2a4,4,0,0,0-2.9,1,3.3,3.3,0,0,0-1,2.4,4,4,0,0,0,2.1,3.4,3.9,3.9,0,0,0,1.3.6l1.6.8,1.9,1Z"/><path class="cls-22" d="M803.8,176.5l-.2-42.3,25.4-.5.3,10.2-12,.3-.2,6h12.6v11.1H817.1v5.4l12.5-.4.3,9.6Z"/><path class="cls-22" d="M848.3,163l-11.1.3.4-30.9,11.5-.3Zm-.3,13.5-10.5-.2v-9.9l10.8.5Z"/><path class="cls-22" d="M271.1,94.4a22.1,22.1,0,0,1-4.4,2.6,15.9,15.9,0,0,1-5,1.1,3.1,3.1,0,0,1-.5,1l-1,1.4-1.3,1.5-1.5,1.6c-1,.8-2.1,1.7-3.3,2.5s-2.4,1.6-3.7,2.3l-1.4-.3-2.1-.7-2.3-.9-2.3-1-1.6-1c-.4-.4-.7-.7-.7-1V102a46.9,46.9,0,0,1,.5-6.2c.4-2.3.9-4.5,1.5-6.7s1.2-3.7,1.9-5.5,1.6-3.7,2.5-5.5,1.9-3.6,2.9-5.3l2.9-5.1c1-1.6,1.9-3.2,2.9-4.6l2.6-4.1h.5l.6.5.6.5.4.5a1.1,1.1,0,0,1,.7.2l.7.5a1.9,1.9,0,0,1,.7.6c.2.2.4.3.5.5l.3.4c.1.1.1.3.2.5s.1.3.1.4a.8.8,0,0,1,.1.3,64.5,64.5,0,0,1-2.9,5.9l-3,5.7-2.9,5.5a51.6,51.6,0,0,0-2.6,5.3l1.3-.5h1.6a6.5,6.5,0,0,1,2.7.5,9.6,9.6,0,0,1,2.5,1.2,8.8,8.8,0,0,1,2,1.8,4.1,4.1,0,0,1,1,1.8h.5a6.8,6.8,0,0,0,2.9-.6l2.8-1.2.4-.3h.5a1.8,1.8,0,0,1,.9.4,2.4,2.4,0,0,1,.6.9l.3,1.2v1.3l-.3,1.1A1.6,1.6,0,0,1,271.1,94.4Zm-15.9,2h-.3l-.4-.2-1.8-1a1,1,0,0,1-.5-.4l-.6-.3-1.1-.7-.9-.6-.4.5a8.7,8.7,0,0,0-1,3.1l-.3,3.1c0,.4.1.5.3.6h.8a6.9,6.9,0,0,0,2-.3,2.3,2.3,0,0,1,1.8-.1c.6.2,1.1-.2,1.5-1.3Z"/><path class="cls-22" d="M280.3,105.1l-1.5-.3-2.3-.8-2.3-.9-1.7-.7-2.3-1.5-1.9-1.8a9.7,9.7,0,0,1-1.1-2.3,7.7,7.7,0,0,1-.4-2.7,10.2,10.2,0,0,1,.5-3.3,20.7,20.7,0,0,1,1.5-3.4,18.6,18.6,0,0,1,2.3-3.2,17.5,17.5,0,0,1,2.9-2.6,17.9,17.9,0,0,1,3.3-1.8,11.3,11.3,0,0,1,3.6-.6,7.6,7.6,0,0,1,5,1.4,5.7,5.7,0,0,1,2.1,4.1,5.3,5.3,0,0,1-.6,2.4,10.1,10.1,0,0,1-1.5,2.1,10.4,10.4,0,0,1-2.2,1.9l-2.5,1.6a11.5,11.5,0,0,1-2.5,1.2L276.4,95l-.4.4c0,.3-.1.6-.1,1a2.8,2.8,0,0,0,.1.9,2.5,2.5,0,0,0,.4.7,1.8,1.8,0,0,0,.7.5l1.2.2a6.7,6.7,0,0,0,2.9-.8,15.2,15.2,0,0,0,3-1.7L287,94l2.4-2.1a9.4,9.4,0,0,0,1-1l1-1a3.8,3.8,0,0,1,1.3-.9,4.2,4.2,0,0,1,1.6-.4,1.7,1.7,0,0,1,1.2.5,1.7,1.7,0,0,1,.5,1.3,11.1,11.1,0,0,1-.2,1.9,7.7,7.7,0,0,1-.8,1.9,14.6,14.6,0,0,1-1.7,2.2,27.2,27.2,0,0,1-2.4,2.4l-2.8,2.3a26.1,26.1,0,0,1-3,2,11.6,11.6,0,0,1-2.7,1.4A4.8,4.8,0,0,1,280.3,105.1Zm.6-21a1.7,1.7,0,0,0-1.2.5l-1.1.9a8.3,8.3,0,0,0-.8,1.2,6.1,6.1,0,0,0-.5,1.2l1.3-.5,1.2-.8,1.1-1,.9-1.1h-.2l-.4-.2Z"/><path class="cls-22" d="M317.6,80c-.2.1-.3.3-.5.5l-.6.4a6.8,6.8,0,0,1-1.7.8l-2.5.9-2.6.6-2.1.5-1.9.3-1.1.2a1.4,1.4,0,0,0-.6.7,9.4,9.4,0,0,0-.8,1.5l-.9,2c-.3.8-.7,1.7-1,2.7s-.6,2-.8,3a10.1,10.1,0,0,0-.4,2.9,3.8,3.8,0,0,0,.4,1.9l1.9-.6,2.5-1.3,2.6-1.8,2.5-2a23.9,23.9,0,0,0,2.3-2.2,9.4,9.4,0,0,0,1.6-2l2.2,1.3,1.7,1.4c-.4.8-.8,1.6-1.4,2.6s-1.2,1.9-2,2.9-1.5,1.9-2.3,2.9a32.5,32.5,0,0,1-2.7,2.6,23.1,23.1,0,0,1-2.8,1.9,8.3,8.3,0,0,1-2.8.9h-1.7l-2.3-.6-2.6-.8-2.5-.9-2.2-1.2a6.1,6.1,0,0,1-1.6-1.6,4,4,0,0,1-.7-2.1V96.6a26.2,26.2,0,0,1,.6-5.4,23.4,23.4,0,0,1,2.2-5.5l-2.3.4-1.3.2-1.1.2h-3.2a2,2,0,0,1-.8-.4.7.7,0,0,1-.5-.4.8.8,0,0,1-.2-.4c0-.3.2-.6.6-1l1.6-.9,2.1-.9,2.2-.5,2.2-.5,1.5-.4a1.9,1.9,0,0,0,.9-.4,2,2,0,0,0,.7-.6l.6-.8a7.7,7.7,0,0,1,.9-1.3l1.2-2.1a18.8,18.8,0,0,1,1.6-2.3,9.6,9.6,0,0,1,1.8-2.2,5.3,5.3,0,0,1,2-1.2h2.7l1.7.5,1.6.7a4.5,4.5,0,0,1,1,.9l-.7,1.1-1.1,1.7-1.6,2.2c-.5.8-.9,1.6-1.3,2.4l2.4-.3L311,79l2.7-.4,2.5-.4h.3a2.7,2.7,0,0,1,1.5.4,2.5,2.5,0,0,0-.2.7A1.9,1.9,0,0,0,317.6,80Z"/><path class="cls-22" d="M339.6,80c-.2.1-.3.3-.5.5l-.6.4a6.8,6.8,0,0,1-1.7.8l-2.5.9-2.6.6-2.1.5-1.9.3-1.1.2a1.4,1.4,0,0,0-.6.7,9.4,9.4,0,0,0-.8,1.5,21.6,21.6,0,0,0-.9,2c-.3.8-.7,1.7-1,2.7s-.6,2-.8,3a10.1,10.1,0,0,0-.4,2.9,3.8,3.8,0,0,0,.4,1.9l1.9-.6,2.4-1.3a15.1,15.1,0,0,0,2.6-1.8l2.6-2a23.9,23.9,0,0,0,2.3-2.2,14,14,0,0,0,1.6-2l2.2,1.3,1.7,1.4c-.4.8-.8,1.6-1.4,2.6s-1.2,1.9-2,2.9a30.7,30.7,0,0,1-2.4,2.9,21.3,21.3,0,0,1-2.6,2.6,23.1,23.1,0,0,1-2.8,1.9,8.3,8.3,0,0,1-2.8.9h-1.7l-2.3-.6-2.6-.8-2.5-.9-2.2-1.2a6.1,6.1,0,0,1-1.6-1.6,4,4,0,0,1-.7-2.1V96.6a26.2,26.2,0,0,1,.6-5.4,23.4,23.4,0,0,1,2.2-5.5l-2.3.4-1.3.2-1.1.2h-3.2a2,2,0,0,1-.8-.4.7.7,0,0,1-.5-.4.8.8,0,0,1-.2-.4c0-.3.2-.6.6-1l1.6-.9,2.1-.9,2.2-.5,2.2-.5,1.5-.4a1.9,1.9,0,0,0,.9-.4,2,2,0,0,0,.7-.6l.6-.8a7.7,7.7,0,0,1,.9-1.3l1.2-2.1,1.5-2.3a13.7,13.7,0,0,1,1.9-2.2,5.3,5.3,0,0,1,2-1.2h2.7l1.7.5,1.6.7a4.5,4.5,0,0,1,1,.9l-.7,1.1-1.1,1.7c-.6.7-1.1,1.5-1.6,2.2s-.9,1.6-1.3,2.4l2.4-.3L333,79l2.7-.4,2.5-.4h.3a2.7,2.7,0,0,1,1.5.4,2.5,2.5,0,0,0-.2.7A1.9,1.9,0,0,0,339.6,80Z"/><path class="cls-22" d="M347.9,105.1l-1.5-.3-2.3-.8-2.3-.9-1.7-.7-2.3-1.5a16.6,16.6,0,0,1-1.9-1.8,9.7,9.7,0,0,1-1.1-2.3,7.7,7.7,0,0,1-.4-2.7,10.2,10.2,0,0,1,.5-3.3,20.7,20.7,0,0,1,1.5-3.4,18.6,18.6,0,0,1,2.3-3.2,17.5,17.5,0,0,1,2.9-2.6,17.9,17.9,0,0,1,3.3-1.8,11.3,11.3,0,0,1,3.6-.6,7.6,7.6,0,0,1,5,1.4,5.7,5.7,0,0,1,2.1,4.1,5.3,5.3,0,0,1-.6,2.4,10.1,10.1,0,0,1-1.5,2.1,10.4,10.4,0,0,1-2.2,1.9l-2.5,1.6a11.5,11.5,0,0,1-2.5,1.2L344,95c-.1.1-.3.2-.4.4s-.1.6-.1,1a2.8,2.8,0,0,0,.1.9,2.5,2.5,0,0,0,.4.7,1.8,1.8,0,0,0,.7.5l1.2.2a6.7,6.7,0,0,0,2.9-.8,15.2,15.2,0,0,0,3-1.7l2.8-2.2,2.4-2.1,1-1,1-1a4.5,4.5,0,0,1,2.9-1.3,1.7,1.7,0,0,1,1.2.5,1.7,1.7,0,0,1,.5,1.3,11.1,11.1,0,0,1-.2,1.9,7.7,7.7,0,0,1-.8,1.9,14.6,14.6,0,0,1-1.7,2.2,27.2,27.2,0,0,1-2.4,2.4l-2.8,2.3a26.1,26.1,0,0,1-3,2,11.6,11.6,0,0,1-2.7,1.4A4.8,4.8,0,0,1,347.9,105.1Zm.6-21a1.7,1.7,0,0,0-1.2.5l-1.1.9-.8,1.2a6.1,6.1,0,0,0-.5,1.2l1.3-.5,1.2-.8,1.1-1,.9-1.1h-.2a.5.5,0,0,0-.4-.2Z"/><path class="cls-22" d="M359.9,88a10.9,10.9,0,0,0,.1-1.9V83.8a4.8,4.8,0,0,1,.6-1.8,1.7,1.7,0,0,1,1.6-.8,2.1,2.1,0,0,1,1.2.3,2.7,2.7,0,0,1,1,.6l.9.6a1.7,1.7,0,0,0,1,.3,22.5,22.5,0,0,0,4-.4l3.2-1.1a16.7,16.7,0,0,0,2.8-1.8c1-.7,2-1.6,3.1-2.5l.7-.3.7-.2a4.5,4.5,0,0,1,1.3,1.1l1,1.5.8,1.6a3.6,3.6,0,0,1,.3,1.1.8.8,0,0,1-.2.6c-.1.2-.3.3-.7.5a2.8,2.8,0,0,0-1.1.7l-1.3,1.3-1.3,1.7-1.3,2-1.2,1.9-1,1.8a24.1,24.1,0,0,0-1.5,3.3,6.6,6.6,0,0,0-.7,3c0,1,.2,1.5.4,1.5a2.7,2.7,0,0,0,1.4-.6l1.9-1.4a19.2,19.2,0,0,0,2.3-1.9l2.4-2.1,2-2.1,1.5-1.6.2-.3.3-.3.3-.3h1.3l1.3.4,1.2.6c.3.2.5.4.5.6a4.5,4.5,0,0,1-.5,1.7,21.2,21.2,0,0,1-1.1,2.1c-.6,1.1-1.4,2.2-2.2,3.4s-1.7,2.4-2.6,3.5a29.1,29.1,0,0,1-3,3.1,24.3,24.3,0,0,1-3.2,2.4l-2.7-.7-2.7-1a19.2,19.2,0,0,1-2.5-1.2l-2.3-1.2a8.6,8.6,0,0,1-2.4-2.1c-.5-.8-.8-1.1-.8-1a20,20,0,0,1,.4-4.3l.9-2.8,1.2-2.5,1-2a1.8,1.8,0,0,1-1,.2h-1.1l-.8-.5a10.3,10.3,0,0,1-.4,1.4l-.8,1.5a5.6,5.6,0,0,1-1,1.5l-1.2,1.5a2.1,2.1,0,0,1-1.2,1h-1.1c-.2,0-.4-.1-.7-.4l-.6-1a5.4,5.4,0,0,1-.5-1.1,1.6,1.6,0,0,1-.3-.8,1.9,1.9,0,0,1,.3-1l.7-.9.7-1A3.7,3.7,0,0,0,359.9,88Z"/><path class="cls-22" d="M238.1,143.5a8.1,8.1,0,0,1-1.6,1.6,14.1,14.1,0,0,1-1.8,1.4l-1.9,1.3-2,1.3-.3,1.2c0,.4-.1.8-.1,1.1v.7l.6-.4,1-.8,2.2-1.7a24,24,0,0,1,2.6-1.8,12.6,12.6,0,0,1,2.6-1.3,6.6,6.6,0,0,1,2.7-.6,2.2,2.2,0,0,1,1.4.5,3,3,0,0,1,.9,1.3,5.2,5.2,0,0,1,.6,1.6,10,10,0,0,1,.2,1.6,8.6,8.6,0,0,1-.5,2.7l-1.2,2.7c-.5.9-.9,1.8-1.4,2.6s-.9,1.8-1.3,2.7l2.3-1.5,2.7-2.1,2.9-2.7,3.1-3.1,1.3,1.2,1,.9.5.6a.5.5,0,0,1,.3.5l-.8,1.5c-.3.6-.6,1-.9,1.1a44.3,44.3,0,0,1-3.6,4.5,36.5,36.5,0,0,1-3.5,3.4,18.5,18.5,0,0,1-3.4,2.1,7.9,7.9,0,0,1-3.1.8l-2.6-.2a8.6,8.6,0,0,1-2.3-.6,4,4,0,0,1-1.7-1.5,4.6,4.6,0,0,1-.6-2.5,5.8,5.8,0,0,1,.6-2.6,18.9,18.9,0,0,1,1.1-2.5,19.6,19.6,0,0,1,1.3-2.5,13.4,13.4,0,0,0,1.2-2.4,6.9,6.9,0,0,0-2.2,1.2,21.2,21.2,0,0,0-2.4,2,20.8,20.8,0,0,0-2.1,2.1c-.6.8-1.2,1.4-1.5,1.9a18.2,18.2,0,0,0-1.5,2.3,8.6,8.6,0,0,1-1.5,2.2,10.1,10.1,0,0,1-1.9,1.7,5.3,5.3,0,0,1-2.6.6h-.7l-1-.2a1.6,1.6,0,0,1-.8-.5,1,1,0,0,1-.5-.6,1.3,1.3,0,0,1-.1-.6c0-.6.1-1.4.2-2.3s.2-1.8.4-2.8.3-2,.5-3.1l.6-3.1c.2-1,.4-2,.7-3a18.2,18.2,0,0,1,.7-2.5l2.9-8.5,1.2-2.9a37,37,0,0,1,1.7-3.5l2.2-3.5a20.2,20.2,0,0,1,2.6-3.2,14.8,14.8,0,0,1,2.9-2.2,6.2,6.2,0,0,1,3.2-.9,6.5,6.5,0,0,1,2,.4,3.4,3.4,0,0,1,1.5.7l1.4,1.1,1,1.2a4.3,4.3,0,0,1,.5,1.3,10.5,10.5,0,0,1-.3,2.4,27,27,0,0,1-.9,3.6l-1.5,3.4c-.6,1.1-1.1,2.2-1.7,3.1Zm-6.1.1a11.2,11.2,0,0,0,1.8-2l1.6-2.3a18.6,18.6,0,0,0,1.3-2.3,12.8,12.8,0,0,0,.9-2.2,7.1,7.1,0,0,0,.5-1.6c.1-.5.2-.7.1-.9l-.4.3-1.2,1.8-1.5,2.5-1.6,2.8a26.7,26.7,0,0,0-1.2,2.4,5.9,5.9,0,0,0-.7,1.4C231.6,143.9,231.7,143.9,232,143.6Z"/><path class="cls-22" d="M264,167.5l-1.5-.3-2.3-.8-2.3-.9-1.7-.7-2.3-1.5a16.6,16.6,0,0,1-1.9-1.8,9.7,9.7,0,0,1-1.1-2.3,7.7,7.7,0,0,1-.4-2.7,10.2,10.2,0,0,1,.5-3.3,20.7,20.7,0,0,1,1.5-3.4,18.6,18.6,0,0,1,2.3-3.2,17.5,17.5,0,0,1,2.9-2.6,17.9,17.9,0,0,1,3.3-1.8,11.3,11.3,0,0,1,3.6-.6,7.6,7.6,0,0,1,5,1.4,5.7,5.7,0,0,1,2.1,4.1,5.3,5.3,0,0,1-.6,2.4,10.1,10.1,0,0,1-1.5,2.1,10.4,10.4,0,0,1-2.2,1.9l-2.5,1.6a11.5,11.5,0,0,1-2.5,1.2l-2.3,1.1-.4.4c0,.3-.1.6-.1,1a2.8,2.8,0,0,0,.1.9,2.5,2.5,0,0,0,.4.7,1.8,1.8,0,0,0,.7.5l1.2.2a6.7,6.7,0,0,0,2.9-.8,15.2,15.2,0,0,0,3-1.7l2.8-2.2,2.4-2.1,1-1a4.7,4.7,0,0,1,1-1,3.8,3.8,0,0,1,1.3-.9,4.2,4.2,0,0,1,1.6-.4,1.7,1.7,0,0,1,1.2.5,1.7,1.7,0,0,1,.5,1.3,11.1,11.1,0,0,1-.2,1.9,7.7,7.7,0,0,1-.8,1.9,14.6,14.6,0,0,1-1.7,2.2l-2.4,2.4-2.8,2.3a26.1,26.1,0,0,1-3,2,11.6,11.6,0,0,1-2.7,1.4A4.8,4.8,0,0,1,264,167.5Zm.6-21a1.7,1.7,0,0,0-1.2.5l-1.1.9a8.3,8.3,0,0,0-.8,1.2,6.1,6.1,0,0,0-.5,1.2l1.3-.5,1.2-.8,1.1-1,.9-1.1h-.2a.5.5,0,0,0-.4-.2Z"/><path class="cls-22" d="M310.9,152a3.8,3.8,0,0,1,1.3,1.6,3.4,3.4,0,0,1,.4,1.6,5.3,5.3,0,0,1-.1,1.3l-.3,1.1a13.7,13.7,0,0,1-2,2.9,13.3,13.3,0,0,1-2.6,2.7,17.6,17.6,0,0,1-3,2.4,20.2,20.2,0,0,1-3.2,1.8,21.9,21.9,0,0,1-3.3,1.2,12,12,0,0,1-3.1.4l-2.3-.2-2-.7a4.4,4.4,0,0,1-1.5-1.2,2,2,0,0,1-.6-1.5,2.7,2.7,0,0,1,.2-1.2,15.1,15.1,0,0,1-3.3,1.3,20.9,20.9,0,0,1-3.4.4,11.8,11.8,0,0,1-3.5-.5,5.1,5.1,0,0,1-2.2-1.2,10.9,10.9,0,0,1-1.9-3.5,13.2,13.2,0,0,1-.6-3.9,10.6,10.6,0,0,1,.5-3.1,13.2,13.2,0,0,1,1.5-2.9,16.4,16.4,0,0,1,2.1-2.5l2.5-1.9a13.9,13.9,0,0,1,2.8-1.2,8.4,8.4,0,0,1,2.7-.4,12.4,12.4,0,0,1,4.1.8,13.3,13.3,0,0,1,4.2,2.5l.7-.6,1-.2h.5l.6.4h.8a1.3,1.3,0,0,1,.8.3,7.6,7.6,0,0,1,1.8,1.8,2.6,2.6,0,0,1,.7,1.4,4.1,4.1,0,0,1-.5,1.7l-1,1.9a32,32,0,0,0-1.9,3.6,14,14,0,0,0-1,3.5.5.5,0,0,0,.5.3,3,3,0,0,0,1.4-.6,15.8,15.8,0,0,0,2.3-1.4l2.6-1.9,2.7-2.3,2.5-2.2Zm-22-1.6a1.7,1.7,0,0,0-1.1.6l-1.3,1.2-1.3,1.6-1.1,1.8a14.2,14.2,0,0,0-.8,1.8,10,10,0,0,0-.2,1.6c0,.4,0,.7.2.8l.8.2a5,5,0,0,0,2.6-.8,10.7,10.7,0,0,0,2.3-2,18.5,18.5,0,0,0,1.9-2.7l1.4-2.8-.2-.4-.7-.5-1-.3-1-.2Z"/><path class="cls-22" d="M321.8,167.8a5,5,0,0,1-1.9-.4,13,13,0,0,1-2.5-1l-2.7-1.4-2.5-1.6-1.8-1.4c-.4-.5-.7-.8-.7-1.1s-.1-1.4-.1-2.1a34.8,34.8,0,0,1,.7-6.4q.8-3.2,1.8-6.3a64.4,64.4,0,0,1,2.4-6.1l2.8-5.9,2.2-4a7.6,7.6,0,0,1,.9-1.8,14.3,14.3,0,0,1,1.4-2,17.1,17.1,0,0,1,1.8-2,10.6,10.6,0,0,1,2-1.7,9.4,9.4,0,0,1,2.2-1.2,6.9,6.9,0,0,1,2.4-.5,4.1,4.1,0,0,1,1.7.5l1.7,1.3,1.5,1.7,1.4,1.7.9,1.5a1.8,1.8,0,0,1,.4.8v.4a18.1,18.1,0,0,1-.9,5.5,32.2,32.2,0,0,1-2.3,5.5,59.5,59.5,0,0,1-3.4,5.3c-1.3,1.7-2.7,3.4-4.1,4.9s-2.8,2.8-4.2,4.1a44.3,44.3,0,0,1-4.1,3.1,2.8,2.8,0,0,0,.1.8l.3,1.1a2.3,2.3,0,0,0,.5,1,.6.6,0,0,0,.6.4l1-.3,1.2-.7,2.5-1.7,2.3-1.8,2-1.8,1.8-1.6,1.3-1a1.9,1.9,0,0,1,1-.3,2.5,2.5,0,0,1,1.5.5,2.1,2.1,0,0,1,.5,1.5,5.6,5.6,0,0,1-.7,2.4,14,14,0,0,1-1.8,3,25,25,0,0,1-2.6,3.3,27.6,27.6,0,0,1-3,2.9,16.1,16.1,0,0,1-2.9,2.1A5.1,5.1,0,0,1,321.8,167.8Zm9.7-38.6a33.8,33.8,0,0,0-2.7,3.6c-.9,1.3-1.7,2.7-2.6,4.2l-2.5,4.8c-.8,1.7-1.7,3.5-2.5,5.5h.1a9.4,9.4,0,0,0,2.4-1.8,20.4,20.4,0,0,0,2.3-2.7,17.4,17.4,0,0,0,2-3,27,27,0,0,0,1.5-2.9l.8-2a15.4,15.4,0,0,0,.8-1.9,8.2,8.2,0,0,0,.6-1.9,5.5,5.5,0,0,0,.3-1.7l-.3-.2Z"/><path class="cls-22" d="M357.6,142.4l-.5.5-.6.4a5.4,5.4,0,0,1-1.7.8l-2.4.9-2.6.6-2.1.5-1.9.3-1.1.2a1.2,1.2,0,0,0-.7.7l-.8,1.5c-.2.5-.5,1.1-.8,2a16.9,16.9,0,0,0-1,2.7l-.9,3a15,15,0,0,0-.3,2.9,5.4,5.4,0,0,0,.3,1.9l2-.6,2.4-1.3a20.3,20.3,0,0,0,2.6-1.8l2.6-2,2.2-2.2a10.1,10.1,0,0,0,1.7-2,10.7,10.7,0,0,1,2.1,1.3,8.5,8.5,0,0,1,1.7,1.4c-.3.8-.8,1.6-1.3,2.6l-2,2.9a30.7,30.7,0,0,1-2.4,2.9,16.6,16.6,0,0,1-2.7,2.6,17.3,17.3,0,0,1-2.8,1.9,7.2,7.2,0,0,1-2.7.9h-1.8l-2.3-.6-2.5-.8-2.5-.9-2.2-1.2a6.1,6.1,0,0,1-1.6-1.6,3.3,3.3,0,0,1-.7-2.1,1.7,1.7,0,0,1-.1-.7V159a26.7,26.7,0,0,1,.7-5.4,28.3,28.3,0,0,1,2.1-5.5l-2.3.4-1.3.2-1,.2h-3.2l-.9-.4a1,1,0,0,1-.5-.4.6.6,0,0,1-.1-.4c0-.3.2-.6.6-1l1.6-.9,2.1-.9,2.2-.5,2.2-.5,1.4-.4a2.3,2.3,0,0,0,1-.4c.2-.2.5-.3.7-.6l.6-.8.8-1.3,1.3-2.1a11.4,11.4,0,0,1,1.5-2.3,13.7,13.7,0,0,1,1.9-2.2,4.7,4.7,0,0,1,2-1.2h2.7l1.7.5a5.2,5.2,0,0,1,1.5.7,3.5,3.5,0,0,1,1.1.9l-.7,1.1-1.2,1.7-1.5,2.2c-.5.8-.9,1.6-1.3,2.4l2.4-.3,2.7-.4,2.8-.4,2.5-.4h.2a2.2,2.2,0,0,1,1.5.4,1.4,1.4,0,0,1-.2.7A1.9,1.9,0,0,1,357.6,142.4Z"/><path class="cls-22" d="M371.4,143.5l-1.6,1.6-1.8,1.4-2,1.3-2,1.3-.3,1.2v1.8l.6-.4,1-.8,2.2-1.7a24,24,0,0,1,2.6-1.8,16.6,16.6,0,0,1,2.7-1.3,6.6,6.6,0,0,1,2.7-.6,2.1,2.1,0,0,1,1.3.5,4.5,4.5,0,0,1,1,1.3,9.8,9.8,0,0,1,.5,1.6,10,10,0,0,1,.2,1.6,8.6,8.6,0,0,1-.5,2.7,15.9,15.9,0,0,1-1.2,2.7,21.5,21.5,0,0,1-1.4,2.6,15.9,15.9,0,0,0-1.2,2.7l2.2-1.5,2.7-2.1,2.9-2.7c1.1-1,2.1-2,3.1-3.1l1.4,1.2.9.9.5.6a1,1,0,0,1,.4.5l-.9,1.5c-.3.6-.6,1-.9,1.1a33.4,33.4,0,0,1-3.5,4.5,36.7,36.7,0,0,1-3.6,3.4,18.5,18.5,0,0,1-3.4,2.1,7.5,7.5,0,0,1-3,.8l-2.6-.2a8.4,8.4,0,0,1-2.4-.6,4,4,0,0,1-1.7-1.5,4.6,4.6,0,0,1-.6-2.5,11,11,0,0,1,.6-2.6,18.9,18.9,0,0,1,1.1-2.5c.4-.9.9-1.7,1.3-2.5s.9-1.6,1.3-2.4a7.3,7.3,0,0,0-2.3,1.2,21.2,21.2,0,0,0-2.4,2l-2.1,2.1-1.5,1.9-1.5,2.3a8.6,8.6,0,0,1-1.5,2.2,7.7,7.7,0,0,1-1.9,1.7,5.3,5.3,0,0,1-2.6.6h-.7l-1-.2-.8-.5a1,1,0,0,1-.5-.6,1.3,1.3,0,0,1-.1-.6c0-.6.1-1.4.2-2.3s.2-1.8.4-2.8.3-2,.5-3.1l.6-3.1c.2-1,.5-2,.7-3s.5-1.7.7-2.5l3-8.5a22.8,22.8,0,0,1,1.1-2.9l1.7-3.5,2.2-3.5a27.8,27.8,0,0,1,2.6-3.2,14.8,14.8,0,0,1,2.9-2.2,6.5,6.5,0,0,1,3.2-.9,7.8,7.8,0,0,1,2.1.4,3.7,3.7,0,0,1,1.4.7l1.4,1.1,1,1.2a2.7,2.7,0,0,1,.5,1.3,10.5,10.5,0,0,1-.3,2.4,17.2,17.2,0,0,1-.9,3.6l-1.5,3.4a22.7,22.7,0,0,1-1.7,3.1Zm-6.2.1a18,18,0,0,0,1.9-2l1.6-2.3L370,137l.9-2.2.5-1.6c.1-.5.1-.7,0-.9l-.4.3-1.2,1.8a23.6,23.6,0,0,1-1.5,2.5l-1.5,2.8c-.5.9-1,1.7-1.3,2.4a3,3,0,0,0-.6,1.4C364.8,143.9,364.9,143.9,365.2,143.6Z"/><path class="cls-22" d="M385.9,163.4l.9-1.4a5.3,5.3,0,0,1,.9-1.1,4.1,4.1,0,0,1,1.1-.7l1.3-.2a3,3,0,0,1,1.4.4,8.3,8.3,0,0,1,1.6,1.2,6.1,6.1,0,0,1,1.3,1.5,3.3,3.3,0,0,1,.6,1.9,2.7,2.7,0,0,1-.3.8l-.8,1.2-1.1,1.3-1.3,1.1a18,18,0,0,1-2.2-.6l-2-.8a8.7,8.7,0,0,1-1.4-1.2,2.5,2.5,0,0,1-.6-1.6A3.8,3.8,0,0,1,385.9,163.4Zm21.4-26.3c-.8,2.2-1.5,4.3-2.3,6.2a58.9,58.9,0,0,1-2.4,5.8q-1.4,2.7-3,5.4a37.9,37.9,0,0,1-3.9,5.3l-1.2-.7-1.3-.7-1.2-.7-1-.6c0-.4.1-.9.2-1.7l.7-2.8c.3-1.1.6-2.3,1-3.6l1.2-4c.4-1.4.9-2.7,1.4-4s1-2.6,1.4-3.8,1-2.2,1.5-3.1a9.9,9.9,0,0,1,1.3-2l.9-.7a2,2,0,0,1,1.1-.2H403l1.4.5,1.5.7a5.3,5.3,0,0,1,1.2,1,.4.4,0,0,1,.1.3l.6.5a1.5,1.5,0,0,1,.3.7Z"/><path class="cls-22" d="M946.3,170.7c-.1.4-.2,1-.4,1.6a10.7,10.7,0,0,0-.7,1.9c-.2.7-.5,1.4-.7,2.2l-.6,2.2,2.2-.7,2.2-.6,2.3-.5h2.3a8.6,8.6,0,0,1,2.2.2l2,.7a6.4,6.4,0,0,1,1.5,1.3,2.9,2.9,0,0,1,.6,1.9l-1.9.9-2.8.9-3.2,1.1-3.5,1.2-3.5,1.3-3.1,1.2c-.3.9-.6,1.9-1,2.9l-1.2,2.9-1.3,3c-.5,1-.8,1.9-1.2,2.8a4.7,4.7,0,0,1-1.2,1.8,8,8,0,0,1-1.7,1.5l-1.9-.7-3.3-1.1-.8-.4c-.3-.2-.4-.3-.4-.5V199c.1-.1.1-.3.1-.6h.1c.3-1.2.7-2.5,1.1-3.9l1.5-4.6c.5-1.6,1-3.3,1.6-5.1s1.1-3.5,1.6-5.2,1-3.6,1.4-5.4.8-3.5,1.1-5.2.1-1.1.1-1.6a3.5,3.5,0,0,1,.3-1.4,2.5,2.5,0,0,1,.8-1,3.5,3.5,0,0,1,1.5-.7l1.3-.2,2.2-.4,2.1-.4,3.5-.8,3.5-.9,3.5-1,3.6-.9,1.8-.4,1.9-.2a3.8,3.8,0,0,1,1.6.4,3.3,3.3,0,0,1,1.3,1.1,14.2,14.2,0,0,1,1.1,1.8l1.2,2.3c-3.4,1.2-6.9,2.2-10.4,3.2Z"/><path class="cls-22" d="M957.9,198.3l-.4-.7a3.5,3.5,0,0,0-.5-.8,6.4,6.4,0,0,1,.2-.7l.2-.8c.4-1.6.9-3.3,1.4-5.2s1.1-3.8,1.7-5.8l1.8-6c.6-2,1.2-3.9,1.8-5.6s1.1-3.4,1.6-4.8l1.5-3.6a2.9,2.9,0,0,1,1.3-.9l2.8-.8,3.6-.8,4.2-.6,4.4-.6,4-.4,3.3-.2h4l1.4.5a2.8,2.8,0,0,1,.9,1,2.9,2.9,0,0,1,.3,1.4v.2l-.7.6-1.1.3-.8.2-8.4,2c-2.8.7-5.6,1.2-8.5,1.7a1.1,1.1,0,0,0-1,.5,5,5,0,0,0-.4,1.3c-.2.5-.3,1.1-.5,1.5s-.3.9-.4,1.3-.3.8-.5,1.3a5.4,5.4,0,0,0-.4,1.5l1.9-.3,2.2-.3,2.2-.3h1.8a4,4,0,0,1,1.7.3,3.8,3.8,0,0,1,1.4.5,2.4,2.4,0,0,1,.9.8,3.7,3.7,0,0,1,.5,1.1,5.9,5.9,0,0,1,.2,1.3,3.4,3.4,0,0,1-1.2.6,18.2,18.2,0,0,1-2.9.8l-2.9.6-3,.6-3.1.6-1.1.3-.6.2-.3.4a5.1,5.1,0,0,0-.4,1l-1.1,2.7c-.4.9-.7,1.8-1,2.7l-.9,2.6c-.3.9-.6,1.6-.8,2.4l3.8-.7,4-.9,4.1-1.1,4.1-.9,4-.7,3.8-.3a2.5,2.5,0,0,1,2,.6,2,2,0,0,1,.6,1.4,2.6,2.6,0,0,1-.3,1.1,3.5,3.5,0,0,1-.6.9l-4.4,1.6-4.7,1.7-4.9,1.8-5.1,1.7-.9.2-1.8.4-2.3.4-2.7.5-2.6.4H962l-1.6-.2Z"/><path class="cls-22" d="M1048.9,165l-.3.6-3.6,3.1-4,3.6c-1.4,1.4-3,3-4.6,4.8s-3.6,3.9-5.7,6.4l-1.7,2c-.7.9-1.4,1.8-2.1,2.9a37.1,37.1,0,0,0-2.3,3.2l-2.2,3.2-1.5,2.8a5.6,5.6,0,0,0-.7,1.9,1.7,1.7,0,0,1-.3,1,1,1,0,0,1-.6.5l-.8.2h-2.3l-1.3-.3-1-.2-.4-.2-1.7-1.3-1.7-3.1c-.5-1.1-.9-2.2-1.3-3.2a24.3,24.3,0,0,1-.9-3c-.2-1-.4-1.8-.5-2.6l-1.4,2.9-1.4,3.3-1.1,3.1a7.9,7.9,0,0,0-.4,2.2,3.3,3.3,0,0,1-.3,1.5,2.6,2.6,0,0,1-.5.9,1.6,1.6,0,0,1-.9.3h-2l-.7-.2-1.8-1.7-1.8-1.7a2.9,2.9,0,0,1-.2-.9c0-.3-.1-.7-.1-1s-.1-2.6-.1-3.9V173.5c0-1.5,0-3,.1-4.3h0a2.8,2.8,0,0,1,.1-.9,1.1,1.1,0,0,1,.3-.8,1.7,1.7,0,0,1,.6-.6l1-.2a3.3,3.3,0,0,1,1.9.6,7,7,0,0,1,1.6,1.4l1.3,1.7,1,1.6a3,3,0,0,1,.6,1.1,5.7,5.7,0,0,1,.1,1.3v.3c-.1,2.2-.2,4.3-.3,6.1s-.2,3.7-.3,5.3a26,26,0,0,0,1.3-2.4l1.5-2.8c.6-.9,1.1-1.8,1.7-2.6a11.6,11.6,0,0,1,1.6-2l.9.2.8.3,2.6,1.8a3,3,0,0,1,.4,1l.3,1.1.5,1.7c.1.6.3,1.1.4,1.7l.5,1.7.6,1.4a69.1,69.1,0,0,1,12.8-13.8,71.7,71.7,0,0,1,7.9-5.7,56.4,56.4,0,0,1,8.3-4.5h1.1l1.5.4,1.3.5.6.2A2.5,2.5,0,0,1,1048.9,165Z"/><path class="cls-22" d="M1033.2,198.3l-.4-.7a3.5,3.5,0,0,0-.5-.8,6.4,6.4,0,0,1,.2-.7l.2-.8c.4-1.6.9-3.3,1.4-5.2s1.1-3.8,1.7-5.8,1.1-4,1.8-6l1.7-5.6c.6-1.8,1.2-3.4,1.7-4.8l1.5-3.6a2.9,2.9,0,0,1,1.3-.9l2.7-.8,3.7-.8,4.2-.6,4.4-.6,4-.4,3.3-.2h4l1.4.5a2.8,2.8,0,0,1,.9,1,2.9,2.9,0,0,1,.3,1.4v.2l-.7.6-1.1.3-.8.2-8.4,2c-2.8.7-5.6,1.2-8.5,1.7a1.1,1.1,0,0,0-1,.5,5,5,0,0,0-.4,1.3c-.2.5-.3,1.1-.5,1.5s-.3.9-.4,1.3-.3.8-.5,1.3a5.4,5.4,0,0,0-.4,1.5l1.9-.3,2.2-.3,2.2-.3h1.8a4,4,0,0,1,1.7.3,4.6,4.6,0,0,1,1.4.5,2.4,2.4,0,0,1,.9.8,3.7,3.7,0,0,1,.5,1.1,5.7,5.7,0,0,1,.1,1.3,2.3,2.3,0,0,1-1.2.6,14.7,14.7,0,0,1-2.8.8l-2.9.6-3,.6-3.1.6-1.1.3-.6.2-.3.4-.5,1-1,2.7c-.4.9-.7,1.8-1,2.7l-.9,2.6c-.3.9-.6,1.6-.8,2.4l3.7-.7,4.1-.9,4.1-1.1,4.1-.9,4-.7,3.8-.3a2.5,2.5,0,0,1,2,.6,2,2,0,0,1,.6,1.4,2.6,2.6,0,0,1-.3,1.1,3.5,3.5,0,0,1-.6.9l-4.4,1.6-4.7,1.7-4.9,1.8-5.1,1.7-.9.2-1.8.4-2.3.4-2.7.5-2.6.4h-2.3l-1.6-.2Z"/><path class="cls-22" d="M1102.1,207.9a17.7,17.7,0,0,1-4.9-.6,14,14,0,0,1-3.7-1.7,10.5,10.5,0,0,1-2.7-2.4,15.7,15.7,0,0,1-2-3c-.6-1.1-1-2.2-1.5-3.3l-1.2-3.4c-.2-.8-.5-1.6-.8-2.5l-.9-2.5a12.2,12.2,0,0,0-1-2.3,5.6,5.6,0,0,0-1.1-1.7h-2c-.4,1.2-.7,2.5-1,3.8s-.7,2.7-1,4.1-.7,2.7-1.1,4.1a34.5,34.5,0,0,1-1.4,4.2h-1.4a8.6,8.6,0,0,1-2.3-.2,6.5,6.5,0,0,1-2.1-.7,5,5,0,0,1-1.5-1.4,3.2,3.2,0,0,1-.6-2v-.2a15.7,15.7,0,0,1,.5-3.2,33.5,33.5,0,0,1,1.1-4.6c.4-1.7,1-3.5,1.6-5.5l1.8-5.8c.6-1.9,1.2-3.7,1.7-5.4l1.6-4.7c.4-1.3.8-2.4,1-3.2a12.6,12.6,0,0,0,.4-1.2l.4-.2.8-.3,1.2-.4,2-.5,2.5-.7,2.8-.6,2.9-.4,2.6-.2a23.2,23.2,0,0,1,5.5.6,11.9,11.9,0,0,1,4.1,1.8,9.3,9.3,0,0,1,2.5,3.1,10.2,10.2,0,0,1,.9,4.4,11.4,11.4,0,0,1-2.9,7.6,14.5,14.5,0,0,1-2.9,2.6,26.8,26.8,0,0,1-3.3,1.8l-3.3,1.3-2.7.7,1.6,2.8c.5,1.1,1,2.2,1.6,3.3a42.9,42.9,0,0,1,1.7,4.3,6.9,6.9,0,0,0,1.9,3.3,8.6,8.6,0,0,1,1.9,2.2l2.1,2.5,1.3.9,1.5,1.1,1.4,1.1a1.9,1.9,0,0,1,.5,1,1.1,1.1,0,0,1-.5.9l-1.1.6-1.4.3ZM1091.5,168l-3.6.2a13.1,13.1,0,0,0-2.7.7c-.2.8-.5,1.6-.8,2.6l-.9,2.8c-.3.9-.6,1.8-.8,2.6a10.8,10.8,0,0,0-.5,1.9h.6l3.6-.3,3.5-1a20.2,20.2,0,0,0,3.4-1.4,17.5,17.5,0,0,0,2.7-1.6,8.3,8.3,0,0,0,1.9-1.8,2.7,2.7,0,0,0,.7-1.8,1.6,1.6,0,0,0-.6-1.3,3.5,3.5,0,0,0-1.6-.9,7.1,7.1,0,0,0-2.2-.6Z"/><path class="cls-22" d="M952.7,264.3a10,10,0,0,1-2-.4l-2.8-1.1-3.3-1.6-3.4-2-3.2-2.3a32.3,32.3,0,0,1-2.7-2.3,19,19,0,0,1-2-2.2,4.4,4.4,0,0,1-.7-2v-.9a3.4,3.4,0,0,1,.1-1,16.6,16.6,0,0,1,1.4-5.4,25.5,25.5,0,0,1,3.1-5.2,33.7,33.7,0,0,1,4.5-4.8,34.5,34.5,0,0,1,5.6-3.8,28.5,28.5,0,0,1,6.5-2.6,22.6,22.6,0,0,1,6.9-1,8.2,8.2,0,0,1,2.8.4,5.7,5.7,0,0,1,2.2,1.1,6.5,6.5,0,0,1,1.5,1.8,8.3,8.3,0,0,1,.8,2.2,6.8,6.8,0,0,1,.2,1.4,3.4,3.4,0,0,1-.7,2.2,6.9,6.9,0,0,1-1.7,1.7,18.8,18.8,0,0,1-1.8,1.2l-1.2.6-.6.2h-.3l-.7-.5-.7-.5-3.9-4.2a13.5,13.5,0,0,0-3,1.4,30,30,0,0,0-3,2.3A24.3,24.3,0,0,0,948,240a16.6,16.6,0,0,0-2.2,3.2,17,17,0,0,0-1.4,3.5,10.2,10.2,0,0,0-.6,3.4,3.7,3.7,0,0,0,.4,1.1,4.1,4.1,0,0,0,.8,1.4l1.4,1.6,1.7,1.5,2,1.4a7.6,7.6,0,0,0,1.8.9,3.4,3.4,0,0,0,1.6.4,3.3,3.3,0,0,0,1.4-.4l2.3-1.2,2.8-1.7,3.1-2,3.1-2,2.8-1.7,2.3-1.2a3.6,3.6,0,0,1,1.3-.5.9.9,0,0,1,.8.4,1.5,1.5,0,0,1,.2.8,5.6,5.6,0,0,1-1,2.9,27.8,27.8,0,0,1-2.9,3.4,46.9,46.9,0,0,1-4,3.3,38.9,38.9,0,0,1-4.6,2.9,29.5,29.5,0,0,1-4.5,2.1A12.9,12.9,0,0,1,952.7,264.3Z"/><path class="cls-22" d="M999.1,264.9a13.6,13.6,0,0,1-3.3-.7,5.7,5.7,0,0,1-2.2-1.2,4.6,4.6,0,0,1-1.4-1.7,10.7,10.7,0,0,1-.7-1.9,14.3,14.3,0,0,1-.4-2.2,17.9,17.9,0,0,1-.2-2.3l-2.7-.5-2.9-.4-2.8-.4h-2.7l-1.4,1.9-1.3,1.7-1.2,1.8-1.2,1.9a17.4,17.4,0,0,0-1.1,1.8l-.8.8-.7.7a1.7,1.7,0,0,1-.8-.2l-1.3-.6-1.5-.8-1.5-.9-1.3-.9a2.3,2.3,0,0,1-.7-.7l.3-.5.4-.6c.8-.1,1.9-1.3,3.2-3.6a37.9,37.9,0,0,1,4.6-6.7c1.7-2.1,3.5-4.2,5.6-6.5s4.1-4.5,6.2-6.8,4.5-4.5,6.8-6.6a74.9,74.9,0,0,1,6.8-6,7.1,7.1,0,0,1,2,.2l2.2.4,1.7.6c.4.2.7.4.7.7s-1,3.6-1.5,5.6-.9,4.1-1.3,6.2a61.7,61.7,0,0,0-1.1,6.2,42.6,42.6,0,0,0-.4,6.1c0,1.1,0,2.2.1,3.3s.1,2.1.2,3.1l.3,3.2c.1,1.1.2,2.1.2,3.1a4.8,4.8,0,0,1-.6,2.6,2.1,2.1,0,0,1-1.9.9Zm-15.8-16.1,3.7.5,3.7.4c0-.2.1-.4.1-.7s.1-.5.2-.8.3-1.9.5-2.9.3-2,.5-3,.4-1.8.6-2.5l.4-1.4-2.1,2.2-2.5,2.7-2.6,2.9A31.8,31.8,0,0,1,983.3,248.8Z"/><path class="cls-22" d="M1038.3,270.3a17.7,17.7,0,0,1-4.9-.6,14,14,0,0,1-3.7-1.7,15.5,15.5,0,0,1-2.7-2.4,15.7,15.7,0,0,1-2-3c-.5-1.1-1-2.2-1.4-3.3a27.9,27.9,0,0,1-1.2-3.4c-.3-.8-.5-1.6-.8-2.5l-.9-2.5-1-2.3a8.3,8.3,0,0,0-1.1-1.7h-2.1c-.3,1.2-.7,2.5-1,3.8s-.6,2.7-1,4.1-.7,2.7-1.1,4.1a23,23,0,0,1-1.4,4.2h-1.4a8.6,8.6,0,0,1-2.3-.2,6.5,6.5,0,0,1-2.1-.7,5,5,0,0,1-1.5-1.4,3.9,3.9,0,0,1-.5-2v-.2a14.5,14.5,0,0,1,.4-3.2c.3-1.4.6-2.9,1.1-4.6l1.6-5.5,1.8-5.8c.6-1.9,1.2-3.7,1.7-5.4l1.6-4.7c.4-1.3.8-2.4,1-3.2a12.6,12.6,0,0,0,.4-1.2l.4-.2.8-.3,1.2-.4,2-.5,2.5-.7,2.9-.6,2.8-.4,2.6-.2a22.6,22.6,0,0,1,5.5.6,11.9,11.9,0,0,1,4.1,1.8,9.3,9.3,0,0,1,2.5,3.1,10.2,10.2,0,0,1,.9,4.4,9.3,9.3,0,0,1-.8,4.2,10.8,10.8,0,0,1-2.1,3.4,14.5,14.5,0,0,1-2.9,2.6l-3.3,1.8-3.3,1.3-2.7.7,1.6,2.8,1.6,3.3a27.4,27.4,0,0,1,1.7,4.3,6.9,6.9,0,0,0,1.9,3.3,11.1,11.1,0,0,1,2,2.2,16.4,16.4,0,0,0,2.1,2.5l1.2.9,1.6,1.1,1.3,1.1a1.4,1.4,0,0,1,.5,1,1.1,1.1,0,0,1-.5.9l-1.1.6-1.4.3Zm-10.6-39.9-3.6.2a13.1,13.1,0,0,0-2.7.7c-.2.8-.5,1.6-.8,2.6l-.9,2.8c-.3.9-.6,1.8-.8,2.6a10.8,10.8,0,0,0-.5,1.9h.6l3.6-.3,3.6-1a19.2,19.2,0,0,0,3.3-1.4,17.5,17.5,0,0,0,2.7-1.6,8.3,8.3,0,0,0,1.9-1.8,2.7,2.7,0,0,0,.7-1.8,1.6,1.6,0,0,0-.6-1.3,3.2,3.2,0,0,0-1.5-.9,8.6,8.6,0,0,0-2.3-.6Z"/><path class="cls-22" d="M1037.4,257.6c.1.1.1.2.2.4S1037.4,258.1,1037.4,257.6Zm13.6.3a10.6,10.6,0,0,0,2.4-.2,25.1,25.1,0,0,0,5.5-2,12.1,12.1,0,0,0,2.5-1.7,9.7,9.7,0,0,0,1.9-2.2,5.8,5.8,0,0,0,.9-2.5v-.2a2.1,2.1,0,0,0-.8-1.4,13.3,13.3,0,0,0-2-1.4l-2.7-1.6-3.2-1.7-3.2-1.9-2.7-2.1a10.2,10.2,0,0,1-2-2.2,5.5,5.5,0,0,1-.7-2.5,4.6,4.6,0,0,1,.9-2.7,11.4,11.4,0,0,1,2.5-2.4,27.4,27.4,0,0,1,3.4-1.9,29.7,29.7,0,0,1,3.9-1.3l3.7-.9,3-.3,2.7.2a5.2,5.2,0,0,1,2.2.7,4.3,4.3,0,0,1,1.7,1.3,5.8,5.8,0,0,1,.9,2.1,7.3,7.3,0,0,1,.3,2.2v.4l-4.3.2-4.3.2-3.7.5a5.2,5.2,0,0,0-2.5,1l2.4,1.2,3.6,1.8,3.4,1.8,3.1,1.9a14.3,14.3,0,0,1,2.6,2.2,17.7,17.7,0,0,1,1.7,2.4,6.6,6.6,0,0,1,.6,2.7v.6a13,13,0,0,1-1.1,4.9,15.5,15.5,0,0,1-2.5,4.1,18.3,18.3,0,0,1-3.6,3.1,28.9,28.9,0,0,1-4.3,2.2,25.2,25.2,0,0,1-4.7,1.3,25.6,25.6,0,0,1-4.7.4,24.9,24.9,0,0,1-4.9-.4,22.6,22.6,0,0,1-4.1-.9,19.2,19.2,0,0,1-3.2-1.4,15.3,15.3,0,0,1-2.3-1.5,9.2,9.2,0,0,1-1.4-1.4l-.3-.6a1.1,1.1,0,0,1,.1-.5,3.3,3.3,0,0,1,.5-1.6,2.3,2.3,0,0,1,1.2-.6,5,5,0,0,1,1.9-.3,4.6,4.6,0,0,1,2.1.5,6.8,6.8,0,0,1,2.1,1.9,2.3,2.3,0,0,0,2.4,1A9.6,9.6,0,0,1,1051,257.9Z"/><path class="cls-22" d="M1078.4,259.5l.9-1.4a3.6,3.6,0,0,1,1-1.1l1-.7a3.2,3.2,0,0,1,2.7.2,8.8,8.8,0,0,1,1.7,1.2,6.4,6.4,0,0,1,1.3,1.5,3.3,3.3,0,0,1,.6,1.9,2.7,2.7,0,0,1-.3.8l-.8,1.2-1.1,1.3-1.4,1.1a16.6,16.6,0,0,1-2.1-.6,9.3,9.3,0,0,1-2-.8l-1.5-1.2a3,3,0,0,1-.5-1.6A4.5,4.5,0,0,1,1078.4,259.5Zm21.5-26.3c-.8,2.2-1.6,4.2-2.3,6.2s-1.6,3.9-2.5,5.8a47.4,47.4,0,0,1-2.9,5.4,44.8,44.8,0,0,1-3.9,5.3l-1.2-.7-1.3-.7-1.3-.7-.9-.6a5.9,5.9,0,0,1,.2-1.7c.2-.8.4-1.8.7-2.8s.6-2.3.9-3.6.8-2.7,1.3-4,.9-2.7,1.3-4,1-2.6,1.5-3.8,1-2.2,1.5-3.1a9.6,9.6,0,0,1,1.3-2.1,2,2,0,0,1,.9-.6,2,2,0,0,1,1.1-.2h1.3l1.4.5a4.6,4.6,0,0,1,1.4.7,3.8,3.8,0,0,1,1.2.9.8.8,0,0,1,.1.4c.3.1.4.3.6.5a1.6,1.6,0,0,1,.4.7Z"/><path class="cls-22" d="M192.7,259.1a12.7,12.7,0,0,1-.7,4.4,13.6,13.6,0,0,1-2.3,3.4,9.1,9.1,0,0,1-4.6,2.4l-2.5.5-2.4.4c-.2,1.9-.4,3.3-.6,4.3a7.7,7.7,0,0,0-.2,1.5,7.6,7.6,0,0,1-2.1,4.6,11.7,11.7,0,0,1-3.5,2.3,11.2,11.2,0,0,1-4.5.7,14.4,14.4,0,0,1-3.6-.7,8.8,8.8,0,0,1-2.9-1.7,7.1,7.1,0,0,1-2.4-3.3,13.2,13.2,0,0,1-1-3,34.1,34.1,0,0,1-.8-3.7l-2.2-.2-1.7-.2-1.3-.3a7.6,7.6,0,0,1-4.6-2.1,10.9,10.9,0,0,1-2.2-3.4,12.1,12.1,0,0,1-.8-4.6,10,10,0,0,1,.8-3.5,11,11,0,0,1,1.6-3,8,8,0,0,1,3.4-2.4,11,11,0,0,1,2.9-1l3.7-.8a23.6,23.6,0,0,1,.4-2.8,20,20,0,0,1,.5-2.6,9.6,9.6,0,0,1,2.2-4.4,9.3,9.3,0,0,1,2.9-2.2,10,10,0,0,1,8.1-.3,10.6,10.6,0,0,1,3.5,2.3,8,8,0,0,1,2.3,4.6l.6,2.4c.1.9.3,1.7.4,2.5a36.1,36.1,0,0,1,6,1.1,9.1,9.1,0,0,1,4.4,2.1,10,10,0,0,1,2.3,3A7.8,7.8,0,0,1,192.7,259.1Z"/><path class="cls-22" d="M124.1,318.4a23.1,23.1,0,0,1,4.3.9,19.2,19.2,0,0,1,3.2,1.4,9.4,9.4,0,0,1,2.2,1.5,11.4,11.4,0,0,1,1.5,1.7,8,8,0,0,1,1.3,4.2,10.1,10.1,0,0,1-.5,3.6,7.1,7.1,0,0,1-1.3,2.6,6.6,6.6,0,0,1-1.8,1.9,12,12,0,0,1-2.1,1.3,14.9,14.9,0,0,1-5.7,1.4,32.2,32.2,0,0,1-4.4,0,14,14,0,0,1-3.2-.6,10.8,10.8,0,0,1-2.4-1l-1.5-1.2a4.9,4.9,0,0,1-1.5-3.5,6.2,6.2,0,0,1,.4-2.5,3.9,3.9,0,0,1,1.1-1.7,6.4,6.4,0,0,1,1.6-1.1,6.4,6.4,0,0,1,1.8-.6,16.2,16.2,0,0,1,5-.2,9.9,9.9,0,0,1-3.3-1.1,9.7,9.7,0,0,1-2.4-1.5,11.9,11.9,0,0,1-1.5-1.8,16.2,16.2,0,0,1-1-1.8,9.7,9.7,0,0,1-.5-4.5,7.7,7.7,0,0,1,.8-2.8,6.7,6.7,0,0,1,1.3-2.2,10.7,10.7,0,0,1,1.6-1.4,9.5,9.5,0,0,1,1.7-1,13.3,13.3,0,0,1,4.5-.8,24.3,24.3,0,0,1,6.5.4,8.6,8.6,0,0,1,3.6,1.6,3.8,3.8,0,0,1,1.5,2.1,5.3,5.3,0,0,1,.2,2.1,4.7,4.7,0,0,1-.6,1.9,8,8,0,0,1-1.3,1.3l-1.8.9-2,.4A18.6,18.6,0,0,1,124.1,318.4Z"/><path class="cls-22" d="M165.5,338.3l-2.2.4h-2.1a7.5,7.5,0,0,1-2.4-.8,7,7,0,0,1-2-1.8,7.6,7.6,0,0,1-1.3-2,4.7,4.7,0,0,1-.7-1.7c-.2-.6-.2-.9-.3-1.2a9.6,9.6,0,0,1-.2,1.2,7.7,7.7,0,0,1-.7,1.7,7.6,7.6,0,0,1-1.3,2,7,7,0,0,1-4.4,2.6h-2.1l-2.2-.4a5.4,5.4,0,0,1-1.5-.9,3.8,3.8,0,0,1-1.1-1.1,6.1,6.1,0,0,1-.7-1.4,7.4,7.4,0,0,1-.4-1.4,20.2,20.2,0,0,1-.3-3.6,32.9,32.9,0,0,1,.7-5.7,27.2,27.2,0,0,1,1.5-4.8,23.8,23.8,0,0,1,1.8-3.9l2-3.2a15.6,15.6,0,0,1,3-3.2,16.4,16.4,0,0,1,2.8-1.6l2.1-.6h2l2.2.6a21.4,21.4,0,0,1,2.8,1.6,15.6,15.6,0,0,1,3,3.2c.7,1,1.3,2,2,3.2a36.6,36.6,0,0,1,1.8,3.9,20.9,20.9,0,0,1,1.4,4.8,32.6,32.6,0,0,1,.8,5.7,13.8,13.8,0,0,1-.3,3.6,7.4,7.4,0,0,1-.4,1.4,6.1,6.1,0,0,1-.7,1.4,5.7,5.7,0,0,1-1.1,1.1A5.4,5.4,0,0,1,165.5,338.3Zm-10.8-15.9a1.8,1.8,0,0,0-1.3.6,1.3,1.3,0,0,0-.4,1.3,1.4,1.4,0,0,0,.5,1.2,1.6,1.6,0,0,0,1.2.4,1.7,1.7,0,0,0,1.2-.5c.4-.2.5-.6.5-1.1a2,2,0,0,0-.4-1.3A1.5,1.5,0,0,0,154.7,322.4Z"/><path class="cls-22" d="M186.5,327.3a24.8,24.8,0,0,1,.5,4.2,12.1,12.1,0,0,1-.4,3,6.9,6.9,0,0,1-1,2.1,5.3,5.3,0,0,1-1.4,1.2,6.1,6.1,0,0,1-4.1.8,6.9,6.9,0,0,1-2.2-.3,5.1,5.1,0,0,1-1.8-.9,4.9,4.9,0,0,1-1.2-1.3,13,13,0,0,1-1-1.5,14.5,14.5,0,0,1-1.2-4,28.8,28.8,0,0,1-.6-5.9c0-2,0-3.8.1-5.4s.3-3.7.5-5.5a6.6,6.6,0,0,1,1-2.7,9.1,9.1,0,0,1,1.9-2,8.6,8.6,0,0,1,2.3-1.3,10.4,10.4,0,0,1,2.5-.8,26,26,0,0,1,6.4-.5l3.8.5,2.7.7,1.9.9a5,5,0,0,1,1.3,1.1,3.4,3.4,0,0,1,1.2,2.6,4.6,4.6,0,0,1-.4,2.1,4.2,4.2,0,0,1-1.1,1.5,5.7,5.7,0,0,1-1.6,1.1,7,7,0,0,1-1.9.6,21.2,21.2,0,0,1-5.3.5,7.6,7.6,0,0,1,3.3,1,3.8,3.8,0,0,1,1.6,1.4,3.2,3.2,0,0,1,.6,1.8,3.8,3.8,0,0,1-1,2.9,6.2,6.2,0,0,1-2.2,1.5A7.9,7.9,0,0,1,186.5,327.3Z"/><path class="cls-22" d="M213.4,307.4a26.3,26.3,0,0,1,4.3.3,22.1,22.1,0,0,1,3.2.7l2.2.9a8.5,8.5,0,0,1,1.4,1,3.4,3.4,0,0,1,1.2,2.7,4,4,0,0,1-.5,2.2,4.8,4.8,0,0,1-1.2,1.6,7.2,7.2,0,0,1-1.9,1.1l-2.1.6a27.7,27.7,0,0,1-5.9.3,13.1,13.1,0,0,1,3.8,1.2,5.2,5.2,0,0,1,1.7,1.5,2.9,2.9,0,0,1,.5,2,3.7,3.7,0,0,1-.6,2.1A9.6,9.6,0,0,1,218,327l-1.6.8-1,.2a18.6,18.6,0,0,1,3.6.3,10.7,10.7,0,0,1,2.7.6,5.1,5.1,0,0,1,1.8.9,6.3,6.3,0,0,1,1.2,1,3.8,3.8,0,0,1,1.1,2.8,3.3,3.3,0,0,1-.6,1.9,8,8,0,0,1-1.3,1.3,6.6,6.6,0,0,1-1.9.9l-2.1.7a24.9,24.9,0,0,1-5.7.6,19.1,19.1,0,0,1-4.3-.2l-3.3-.7a13.3,13.3,0,0,1-2.4-1l-1.7-1.2a5.6,5.6,0,0,1-1.9-3.3,37.8,37.8,0,0,1-.7-6.1c0-2.1,0-4.1.1-5.8l.6-6.2a6.7,6.7,0,0,1,1-2.6,6,6,0,0,1,1.6-1.9,6.7,6.7,0,0,1,2.1-1.3,9,9,0,0,1,2.3-.8A21.3,21.3,0,0,1,213.4,307.4Z"/><path class="cls-22" d="M106.5,371.2a23.1,23.1,0,0,1,4.3.9,19.2,19.2,0,0,1,3.2,1.4,9.4,9.4,0,0,1,2.2,1.5,11.4,11.4,0,0,1,1.5,1.7,8,8,0,0,1,1.3,4.2,10.1,10.1,0,0,1-.5,3.6,7.1,7.1,0,0,1-1.3,2.6,6.6,6.6,0,0,1-1.8,1.9,12,12,0,0,1-2.1,1.3,14.9,14.9,0,0,1-5.7,1.4,32.2,32.2,0,0,1-4.4,0,14,14,0,0,1-3.2-.6,10.8,10.8,0,0,1-2.4-1l-1.5-1.2a4.9,4.9,0,0,1-1.5-3.5,6.2,6.2,0,0,1,.4-2.5,3.9,3.9,0,0,1,1.1-1.7,6.4,6.4,0,0,1,1.6-1.1,6.4,6.4,0,0,1,1.8-.6,16.2,16.2,0,0,1,5-.2,9.9,9.9,0,0,1-3.3-1.1,9.7,9.7,0,0,1-2.4-1.5,11.9,11.9,0,0,1-1.5-1.8,16.2,16.2,0,0,1-1-1.8,9.7,9.7,0,0,1-.5-4.5,7.7,7.7,0,0,1,.8-2.8,6.7,6.7,0,0,1,1.3-2.2,10.7,10.7,0,0,1,1.6-1.4,9.5,9.5,0,0,1,1.7-1,13.3,13.3,0,0,1,4.5-.8,24.3,24.3,0,0,1,6.5.4,8.6,8.6,0,0,1,3.6,1.6,3.8,3.8,0,0,1,1.5,2.1,5.3,5.3,0,0,1,.2,2.1,4.7,4.7,0,0,1-.6,1.9,8,8,0,0,1-1.3,1.3l-1.8.9-2,.4A18.6,18.6,0,0,1,106.5,371.2Z"/><path class="cls-22" d="M151,371.1a13.6,13.6,0,0,1-.4,4.2,9.9,9.9,0,0,1-3.6,5.1,11.5,11.5,0,0,1-2.5,1.2,16.6,16.6,0,0,1-6.8.8,16.8,16.8,0,0,1,.3,2.9,6.8,6.8,0,0,1-.2,2.1,4.8,4.8,0,0,1-.7,1.6,5.2,5.2,0,0,1-1,1.1,5.1,5.1,0,0,1-3,1.2,7.2,7.2,0,0,1-4.3-.6,10.9,10.9,0,0,1-2.8-2.2,10.6,10.6,0,0,1-1.8-3.3,22.8,22.8,0,0,1-1.1-6.6,24.1,24.1,0,0,1,.2-5.5,29.3,29.3,0,0,1,1.1-5.3,10.3,10.3,0,0,1,1.4-3,13.4,13.4,0,0,1,2-2.1l2.1-1.5,2.3-.9a16.3,16.3,0,0,1,5.5-.6,24.7,24.7,0,0,1,4.3.6,12.6,12.6,0,0,1,3.3,1.4,8.4,8.4,0,0,1,2.3,1.8,15.7,15.7,0,0,1,1.7,2.1A13.7,13.7,0,0,1,151,371.1Zm-13.4-.9a1.8,1.8,0,0,0-1.3.6,1.5,1.5,0,0,0-.5,1.2,1.8,1.8,0,0,0,.6,1.3,1.6,1.6,0,0,0,1.2.4,1.7,1.7,0,0,0,1.2-.5,1.3,1.3,0,0,0,.5-1.2,1.7,1.7,0,0,0-.4-1.2A1.5,1.5,0,0,0,137.6,370.2Z"/><path class="cls-22" d="M180.3,391a7.9,7.9,0,0,1-2.2.5H176a7,7,0,0,1-4.4-2.6,7.6,7.6,0,0,1-1.3-2,7.7,7.7,0,0,1-.7-1.7,9.6,9.6,0,0,1-.2-1.2c-.1.3-.1.6-.3,1.2a4.7,4.7,0,0,1-.7,1.7,7.6,7.6,0,0,1-1.3,2,7,7,0,0,1-2,1.8,7.5,7.5,0,0,1-2.4.8h-2.1a7.9,7.9,0,0,1-2.2-.5,3.6,3.6,0,0,1-1.5-.8,5.7,5.7,0,0,1-1.1-1.1l-.7-1.4a7.4,7.4,0,0,1-.4-1.4,14,14,0,0,1-.2-3.6,25.4,25.4,0,0,1,.7-5.7,20.9,20.9,0,0,1,1.4-4.8,23.6,23.6,0,0,1,1.9-3.9c.6-1.2,1.3-2.2,1.9-3.2a15.6,15.6,0,0,1,3-3.2,21.4,21.4,0,0,1,2.8-1.6l2.2-.6h2l2.1.6,2.9,1.6a13.1,13.1,0,0,1,2.9,3.2c.7,1,1.3,2,2,3.2a17.6,17.6,0,0,1,1.8,3.9,27.2,27.2,0,0,1,1.5,4.8,32.9,32.9,0,0,1,.7,5.7,14,14,0,0,1-.2,3.6,7.8,7.8,0,0,1-.5,1.4,3.7,3.7,0,0,1-.7,1.4,3.8,3.8,0,0,1-1.1,1.1A3.6,3.6,0,0,1,180.3,391Zm-10.8-15.8a1.8,1.8,0,0,0-1.3.6,1.6,1.6,0,0,0-.4,1.3,1.4,1.4,0,0,0,.5,1.2,1.6,1.6,0,0,0,1.2.4,1.9,1.9,0,0,0,1.3-.5,1.3,1.3,0,0,0,.5-1.1,2.1,2.1,0,0,0-.5-1.3A1.5,1.5,0,0,0,169.5,375.2Z"/><path class="cls-22" d="M207.2,372.7a7,7,0,0,0-2.5,0,4.1,4.1,0,0,0-1.7.7,2.7,2.7,0,0,0-.9,2,3.5,3.5,0,0,0,.5,1.8,5.2,5.2,0,0,0,1.6,1.2,7.1,7.1,0,0,0,3.1.2,10.5,10.5,0,0,1,3.6.2l1.3.5a5.7,5.7,0,0,1,1.3.8,4.8,4.8,0,0,1,.9,1.4,5.3,5.3,0,0,1,.6,1.9,6.9,6.9,0,0,1-.2,2.5,7.7,7.7,0,0,1-1,2.3,5.7,5.7,0,0,1-2.3,2,13.7,13.7,0,0,1-3.9,1.3,32.3,32.3,0,0,1-4.8.3,33.7,33.7,0,0,1-6.8-1.2,12.9,12.9,0,0,1-4.8-2.8,18,18,0,0,1-1.8-2,9.3,9.3,0,0,1-1.5-2.6,16.1,16.1,0,0,1-1-3.5,14.5,14.5,0,0,1-.3-4.3,16.9,16.9,0,0,1,1.2-6.4l1.3-2.6a22.5,22.5,0,0,1,2.1-2.4,11.4,11.4,0,0,1,3-2.1,13.8,13.8,0,0,1,3.9-1.4,18.4,18.4,0,0,1,4.7-.6,25,25,0,0,1,4.5.4,12.4,12.4,0,0,1,4.7,1.8,6.1,6.1,0,0,1,1.9,2,3.7,3.7,0,0,1,.5,1.1,3.5,3.5,0,0,1,.3,1.4,5,5,0,0,1-.1,1.7,4.5,4.5,0,0,1-1.9,3.5,5.1,5.1,0,0,1-2.1.9A6.5,6.5,0,0,1,207.2,372.7Z"/><path class="cls-22" d="M231,360.2a26.3,26.3,0,0,1,4.3.3,22.1,22.1,0,0,1,3.2.7l2.2.9a8.5,8.5,0,0,1,1.4,1,3.4,3.4,0,0,1,1.2,2.7,4,4,0,0,1-.5,2.2,4.8,4.8,0,0,1-1.2,1.6,7.2,7.2,0,0,1-1.9,1.1l-2.1.6a27.7,27.7,0,0,1-5.9.3,13.1,13.1,0,0,1,3.8,1.2,5.2,5.2,0,0,1,1.7,1.5,2.9,2.9,0,0,1,.5,2,3.7,3.7,0,0,1-.6,2.1,9.6,9.6,0,0,1-1.5,1.4l-1.6.8-1,.2a18.6,18.6,0,0,1,3.6.3,10.7,10.7,0,0,1,2.7.6,5.1,5.1,0,0,1,1.8.9,6.3,6.3,0,0,1,1.2,1,3.8,3.8,0,0,1,1.1,2.8,3.3,3.3,0,0,1-.6,1.9,5.3,5.3,0,0,1-1.3,1.3,6.6,6.6,0,0,1-1.9.9l-2.1.7a24.9,24.9,0,0,1-5.7.6,19.1,19.1,0,0,1-4.3-.2l-3.3-.7a13.3,13.3,0,0,1-2.4-1l-1.7-1.2a5.6,5.6,0,0,1-1.9-3.3,37.8,37.8,0,0,1-.7-6.1c0-2.1,0-4.1.1-5.8l.6-6.2a6.7,6.7,0,0,1,1-2.6,7.7,7.7,0,0,1,1.6-1.9,6.7,6.7,0,0,1,2.1-1.3,9,9,0,0,1,2.3-.8A21.3,21.3,0,0,1,231,360.2Z"/><path class="cls-22" d="M439.2,296.6l1.4,1.2a9.5,9.5,0,0,1,1.5,2,5.9,5.9,0,0,1,.9,2.4,3,3,0,0,1-.4,2.3,30.6,30.6,0,0,1-1.9,2.7,50.9,50.9,0,0,0-3.5,4.8c-1.4,1.9-2.8,4.2-4.4,6.9a82.1,82.1,0,0,0-4.4,8.9,53,53,0,0,0-2.6,7c-.8,2.5-1.5,5.2-2.2,8-.2.9-.3,1.7-.4,2.4a8.6,8.6,0,0,0,.1,1.7v.3a1.5,1.5,0,0,0,.9,1.3,2.6,2.6,0,0,0,2.1-.7,11.2,11.2,0,0,0,2.1-2.2,29,29,0,0,0,1.9-2.9c.5-1,1-1.8,1.3-2.5l.4-.6.7-.4a1.4,1.4,0,0,1,.9-.1l.7.3c0,.2.1.4.1.6a2.9,2.9,0,0,1-.2.9c-.5,1-1.2,2.4-2.2,4.1a33.6,33.6,0,0,1-3.2,5.1l-.9,1-.9,1-.9.8-.4.3a3.5,3.5,0,0,1-1.2.7l-1.6.4h-1.3a3.8,3.8,0,0,1-2.5-1.8,16.9,16.9,0,0,1-1.3-3.1,25.5,25.5,0,0,1-.5-4.1,12,12,0,0,1,0-1.9,12.8,12.8,0,0,1,.1-1.9,20.8,20.8,0,0,1,.6-3.6c.2-1.2.5-2.3.7-3.2a13.2,13.2,0,0,1,.9-3,115.1,115.1,0,0,1,5.5-13.9c1.9-4.2,3.7-7.7,5.3-10.7s3.8-6.5,5.6-9.2a4.4,4.4,0,0,1,1.1-.9,3.1,3.1,0,0,1,1-.5A1.2,1.2,0,0,1,439.2,296.6Z"/><path class="cls-22" d="M432.1,338.7a27.6,27.6,0,0,1,3.8-7.1,18.3,18.3,0,0,1,4.1-4.2,10.9,10.9,0,0,1,4.1-1.7,8.1,8.1,0,0,1,3.6.4,4.4,4.4,0,0,1,2.2,1.8,7.5,7.5,0,0,1,.8,2.4c0,.3.1.6.1,1v1.2c-.1.8-.3,1.9-.6,3.2a14,14,0,0,1-1.9,3.9,18.3,18.3,0,0,1-4,3.8,17,17,0,0,1-6.8,2.5,7,7,0,0,0,.2,2.9,2.9,2.9,0,0,0,2,2l.8.2h.1a9.9,9.9,0,0,0,3-.2l2.5-1a8,8,0,0,0,2.1-1.5c.6-.5,1.1-1.1,1.6-1.6l.3-.3.3-.4a2.1,2.1,0,0,0,.6-.8,18.1,18.1,0,0,0,1.8-2.7l1.2-2.3a1.3,1.3,0,0,1,.4-.7,1.8,1.8,0,0,1,1.6-.5,1.5,1.5,0,0,1,.6.4,1.3,1.3,0,0,1,.1.6,2.2,2.2,0,0,1-.1.8l-1,2.1-1.5,2.5a10.7,10.7,0,0,1-1.6,2.7,2.1,2.1,0,0,1-.4.6l-.6.7a26.8,26.8,0,0,1-4.2,3.9,11.5,11.5,0,0,1-6.1,2.2h-2.3a14.1,14.1,0,0,1-5-1.5,6.9,6.9,0,0,1-2.6-2.8,5.9,5.9,0,0,1-.9-3.2,13.8,13.8,0,0,1,.1-3.5h0A32.9,32.9,0,0,1,432.1,338.7Zm7.3,1.4a6.7,6.7,0,0,1-.6,1.2l-.3,1.1a8.4,8.4,0,0,0,3.9-1.5,11.4,11.4,0,0,0,2.8-2.5,10.1,10.1,0,0,0,1.7-2.7,10.6,10.6,0,0,0,.7-2.2c.1-1.1,0-1.7-.3-1.9l-.7-.3-1.1.3a5.1,5.1,0,0,0-1.6,1.2,18.3,18.3,0,0,0-2.1,2.7A46,46,0,0,0,439.4,340.1Z"/><path class="cls-22" d="M456.7,348.6v.2a1.8,1.8,0,0,1-.1.6l-.3.5c0,.3-.1.5-.1.7a1.4,1.4,0,0,0,.2.6,1.9,1.9,0,0,0,.9.4,1,1,0,0,0,1.1-.3,2.3,2.3,0,0,0,.6-1.2,9.5,9.5,0,0,0,0-1.7c-.1-.7-.1-1.3-.2-1.9a35,35,0,0,0-.4-3.7c-.1-1.1-.2-2.2-.4-3.4v-1c-.4.9-.9,1.8-1.3,2.5a11.8,11.8,0,0,1-1.1,1.8,1,1,0,0,1-.5.6l-.6.3a.9.9,0,0,1-.7-.4,2.5,2.5,0,0,1-.5-.8,1.7,1.7,0,0,1,.1-.7,1.6,1.6,0,0,1,.3-.8l1.3-2.8c.5-1,.9-2,1.4-3.1s.8-2,1.2-2.8.6-1.5.7-1.9.3-2.4.4-3.4.4-1.6.7-1.8a6.2,6.2,0,0,1,1.6-1l2.2-.6,2.4-.2a16.1,16.1,0,0,1,2.2,0,1.3,1.3,0,0,1,.7.5,3,3,0,0,1,.2,1,5.4,5.4,0,0,1-.4,1.8,23,23,0,0,0-.9,2.5c-.2,1-.4,2.1-.6,3.4a23.4,23.4,0,0,0-.4,3.9c0,1.4.1,2.7.2,4a45.2,45.2,0,0,1,.7,4.6,17.3,17.3,0,0,1-.1,5.1,8.4,8.4,0,0,1-2.1,4.2c-1.2,1.2-3.1,1.8-5.7,2a9.4,9.4,0,0,1-3.9-.7,4.4,4.4,0,0,1-2.3-1.8,4.6,4.6,0,0,1-.4-3.8,2.4,2.4,0,0,1,.2-.9,4.1,4.1,0,0,1,.5-.9l.6-.6h1.2l.8.4C456.4,348.1,456.5,348.3,456.7,348.6Z"/><path class="cls-22" d="M473.1,348.6c.1.1.1.1.1.2a1,1,0,0,1-.2.6.8.8,0,0,0-.2.5,2,2,0,0,0-.1.7,1.4,1.4,0,0,0,.2.6l.8.4a1.2,1.2,0,0,0,1.2-.3,2.2,2.2,0,0,0,.5-1.2,8.1,8.1,0,0,0,.1-1.7,13.7,13.7,0,0,1-.2-1.9c-.1-1.4-.3-2.6-.4-3.7s-.3-2.2-.4-3.4v-1l-1.3,2.5-1.1,1.8a1,1,0,0,1-.5.6l-.6.3a.8.8,0,0,1-.7-.4,1.5,1.5,0,0,1-.5-.8v-.7l.4-.8,1.2-2.8a167,167,0,0,0,2.6-5.9,11.3,11.3,0,0,0,.8-1.9,29,29,0,0,1,.4-3.4c.2-1,.4-1.6.7-1.8a4.9,4.9,0,0,1,1.6-1l2.2-.6,2.4-.2a16.1,16.1,0,0,1,2.2,0,1.8,1.8,0,0,1,.7.5,3,3,0,0,1,.2,1,6.2,6.2,0,0,1-.5,1.8,25,25,0,0,0-.8,2.5c-.2,1-.5,2.1-.7,3.4a23.8,23.8,0,0,0-.3,3.9,17.6,17.6,0,0,0,.2,4c.2,1.3.5,2.9.7,4.6a17.3,17.3,0,0,1-.1,5.1,7.8,7.8,0,0,1-2.2,4.2c-1.1,1.2-3,1.8-5.6,2a8.8,8.8,0,0,1-3.9-.7,4.4,4.4,0,0,1-2.3-1.8c-.7-.8-.8-2.1-.5-3.8a9.4,9.4,0,0,1,.3-.9,3.6,3.6,0,0,1,.4-.9l.7-.6h1.1l.9.4A1,1,0,0,1,473.1,348.6Z"/><path class="cls-22" d="M515.4,328.8l-.5,1.1c-.3.6-.6,1.1-.8,1.6a7.6,7.6,0,0,1-.4,1.1c-.2.3-.3.7-.5,1l2.3-3a35.8,35.8,0,0,1,2.6-2.8,10.6,10.6,0,0,1,2.7-1.8,3.2,3.2,0,0,1,2.3-.3,12.8,12.8,0,0,1,2.6,1.6,8.8,8.8,0,0,1,1.8,2,5,5,0,0,1,.8,2.9,27.5,27.5,0,0,1-.3,3.4,31.5,31.5,0,0,1-1.1,4.7,36.6,36.6,0,0,1-2.1,5.1,20.2,20.2,0,0,1-3,4.6,16,16,0,0,1-4,3.3,8.4,8.4,0,0,1-5,1,3.4,3.4,0,0,1-1.9-.5,5.8,5.8,0,0,1-1.5-1.3,6.8,6.8,0,0,1-1.2-2.7,90,90,0,0,0-1.7,9.3c-.5,2.9-.8,5.6-1,8s-.2,4.7-.2,6.6,0,3.5.1,4.7v2.8a4.3,4.3,0,0,1-1.1,2.1,7.7,7.7,0,0,1-2.1,1.4,10.9,10.9,0,0,1-2.4.7,7.2,7.2,0,0,1-1.9.2,1.1,1.1,0,0,1-1-.4l-.6-1a6.1,6.1,0,0,1-.2-1.5,83.4,83.4,0,0,1,.7-9.4c.3-2.9.8-6.4,1.5-10.3s1.7-8.2,3-12.9a13.6,13.6,0,0,1,.4-1.7,14.6,14.6,0,0,0,.5-2,5.6,5.6,0,0,0,.4-1.2,6.5,6.5,0,0,0,.4-1.3,10.4,10.4,0,0,0,.6-2.2c.2-.8.4-1.4.6-2.1a15.4,15.4,0,0,0,.5-1.7l.5-1.5c.2-.8.5-1.6.7-2.4l.7-1.9a5.8,5.8,0,0,0,.4-1.3l.9-2.7.9-2.2a16.7,16.7,0,0,0,.8-2h.1l.2-.4a3.5,3.5,0,0,1,.5-.8.8.8,0,0,1,.9-.1,5.9,5.9,0,0,1,2,.8,9.4,9.4,0,0,1,2.4,1.8h.1v.4a1.5,1.5,0,0,1,.2.9,4.1,4.1,0,0,1-.6,2v.2C515.4,328.7,515.4,328.7,515.4,328.8Zm6.1,1.4c-1.6,1.3-3.1,2.7-4.6,4.1a37.6,37.6,0,0,0-3.8,4.1,24.2,24.2,0,0,0-3.1,4.5c0,.2-.1.5-.1.7s-.1.5-.2.7a10.6,10.6,0,0,1,.3,1.4,8.3,8.3,0,0,0,.6,2.1,11.4,11.4,0,0,0,1,1.9,2.4,2.4,0,0,0,1.6.9c.5.1,1.1-.3,1.8-1a19.4,19.4,0,0,0,2.1-3c.7-1.3,1.3-2.7,2-4.2a31.6,31.6,0,0,0,1.6-4.6,27.3,27.3,0,0,0,1-4.4A7.9,7.9,0,0,0,521.5,330.2Z"/><path class="cls-22" d="M550.3,339.8l-2.5,4.9a31.5,31.5,0,0,1-3.5,5.2,18.3,18.3,0,0,1-4.5,3.9,6.3,6.3,0,0,1-5.2.6,4.8,4.8,0,0,1-2.5-1.5,7.6,7.6,0,0,1-1.6-2.6,16,16,0,0,1-.7-3.3,24.4,24.4,0,0,1,.7-7.8,30.7,30.7,0,0,1,1.1-3.6l1.5-3.4a19.9,19.9,0,0,1,3.2-4.5,9.8,9.8,0,0,1,3.5-2.5,4.6,4.6,0,0,1,4.2.5,6.9,6.9,0,0,1,2-1.3,5.8,5.8,0,0,1,2.3-.2,4,4,0,0,1,2.8,1.6,7.3,7.3,0,0,1,1.2,3.2,17.1,17.1,0,0,1-.1,3.9,13.9,13.9,0,0,1-.6,3.3,13.5,13.5,0,0,0,4.2-2,21.4,21.4,0,0,0,2.9-2.2l.7-.6c.3-.1.5-.2.6-.1a1,1,0,0,1,.3.8,1.7,1.7,0,0,1,0,1,3.7,3.7,0,0,1-.8,1.8,12.5,12.5,0,0,1-3.9,3A14,14,0,0,1,550.3,339.8Zm-14.1,3.6a16.2,16.2,0,0,0-.6,3.8,6.9,6.9,0,0,0,.4,2c.3.6.6,1,1.1,1.1a3.2,3.2,0,0,0,2.4-.5,9.9,9.9,0,0,0,2.5-2.5,20.3,20.3,0,0,0,2.3-3.6c.7-1.4,1.4-2.8,2-4.3a5.7,5.7,0,0,1-2.4-1.3,5.9,5.9,0,0,1-2-2.9,8.7,8.7,0,0,1-.4-3.6,16.6,16.6,0,0,0-2.1,3.1,22.7,22.7,0,0,0-1.6,3.9C537.2,340.1,536.7,341.7,536.2,343.4Zm8.5-11.3a5,5,0,0,0,.2,1.8,4.7,4.7,0,0,0,.7,1.2,3.2,3.2,0,0,0,.9.8l.9.4c.8-2.6,1.1-4.5.8-5.8a1.6,1.6,0,0,0-.7-.9,1.5,1.5,0,0,0-1.1-.2,1.9,1.9,0,0,0-1,.8A3,3,0,0,0,544.7,332.1Z"/><path class="cls-22" d="M574.6,296.6l1.4,1.2a9.5,9.5,0,0,1,1.5,2,11.7,11.7,0,0,1,.9,2.4,3.5,3.5,0,0,1-.4,2.3l-2,2.7c-1,1.2-2.1,2.8-3.5,4.8s-2.7,4.2-4.3,6.9a67.1,67.1,0,0,0-4.4,8.9,72.6,72.6,0,0,0-2.7,7c-.7,2.5-1.5,5.2-2.1,8a12,12,0,0,0-.4,2.4,8.6,8.6,0,0,0,.1,1.7v.3a1.6,1.6,0,0,0,.8,1.3,2.9,2.9,0,0,0,2.2-.7,11.2,11.2,0,0,0,2.1-2.2,17.5,17.5,0,0,0,1.8-2.9l1.4-2.5c0-.2.2-.4.4-.6l.7-.4a1.3,1.3,0,0,1,.9-.1l.6.3a1.4,1.4,0,0,1,.2.6,2.9,2.9,0,0,1-.2.9c-.5,1-1.2,2.4-2.2,4.1a44.5,44.5,0,0,1-3.3,5.1l-.8,1-1,1-.9.8-.3.3-1.3.7-1.6.4H557a3.8,3.8,0,0,1-2.5-1.8,12,12,0,0,1-1.3-3.1,17.7,17.7,0,0,1-.5-4.1,12.8,12.8,0,0,1-.1-1.9c.1-.6.1-1.2.2-1.9s.3-2.5.5-3.6.5-2.3.8-3.2a21.7,21.7,0,0,1,.8-3c1.8-5.1,3.6-9.8,5.5-13.9s3.8-7.7,5.4-10.7,3.8-6.5,5.6-9.2a4.1,4.1,0,0,1,1-.9l1-.5A1.3,1.3,0,0,1,574.6,296.6Z"/><path class="cls-22" d="M588.6,296.6l1.4,1.2a15.6,15.6,0,0,1,1.6,2,7.5,7.5,0,0,1,.8,2.4,3,3,0,0,1-.4,2.3,30.6,30.6,0,0,1-1.9,2.7,50.9,50.9,0,0,0-3.5,4.8c-1.4,1.9-2.8,4.2-4.4,6.9a82.1,82.1,0,0,0-4.4,8.9,72.3,72.3,0,0,0-2.6,7c-.8,2.5-1.5,5.2-2.2,8a11.2,11.2,0,0,0-.3,2.4,4.8,4.8,0,0,0,0,1.7v.3a1.5,1.5,0,0,0,.9,1.3,2.6,2.6,0,0,0,2.1-.7,11.2,11.2,0,0,0,2.1-2.2,29,29,0,0,0,1.9-2.9c.5-1,1-1.8,1.3-2.5a1.3,1.3,0,0,1,.5-.6l.6-.4a1.4,1.4,0,0,1,.9-.1l.7.3a1.3,1.3,0,0,1,.1.6,2.9,2.9,0,0,1-.2.9c-.4,1-1.2,2.4-2.1,4.1a44.5,44.5,0,0,1-3.3,5.1l-.9,1-.9,1-.9.8-.4.3a3.5,3.5,0,0,1-1.2.7l-1.6.4h-1.2a4,4,0,0,1-2.6-1.8,16.9,16.9,0,0,1-1.3-3.1c-.2-1.3-.4-2.6-.5-4.1a12,12,0,0,1,0-1.9c0-.6.1-1.2.1-1.9a20.8,20.8,0,0,1,.6-3.6c.2-1.2.5-2.3.7-3.2a13.2,13.2,0,0,1,.9-3,115.1,115.1,0,0,1,5.5-13.9c1.9-4.2,3.7-7.7,5.3-10.7s3.8-6.5,5.6-9.2a4.4,4.4,0,0,1,1.1-.9l1-.5A1.1,1.1,0,0,1,588.6,296.6Z"/><path class="cls-22" d="M602.1,353.8a5.6,5.6,0,0,1-1.9.7,5.4,5.4,0,0,1-1.8,0,8.6,8.6,0,0,1-1.7-.3,4.5,4.5,0,0,1-2.2-2.3,10.6,10.6,0,0,1-.7-3.7,24.2,24.2,0,0,1-4.4,4.6,6.9,6.9,0,0,1-5,1.5h-.3a4.7,4.7,0,0,1-3.3-2,8.9,8.9,0,0,1-1.1-3.5,10.1,10.1,0,0,1,.1-3c.1-1,.3-1.9.4-2.5s.6-2.1.8-3,.5-1.9.7-2.7.6-1.6.8-2.3l.7-1.9a2.5,2.5,0,0,0,.2-.7,1.4,1.4,0,0,1,.2-.6l.9-2.7c.3-.8.7-1.5.9-2.2a16.7,16.7,0,0,0,.8-2h.1c0-.1.1-.2.2-.5l.5-.7a.9.9,0,0,1,1-.1,6.4,6.4,0,0,1,1.9.8,7.6,7.6,0,0,1,2.3,1.8l.3.4c0,.1.1.2.1.4a1.3,1.3,0,0,1,.1.6,4.1,4.1,0,0,1-.6,2v.2c-.1,0-.1,0-.1.1a3.8,3.8,0,0,0-.5,1.1l-.8,1.6-.6,1.4a5.3,5.3,0,0,1-.6,1.3l-1.2,3.5-1.1,3.7a14.2,14.2,0,0,0-.6,2.1,6.6,6.6,0,0,0-.1,2.4,1.6,1.6,0,0,0,.7,1.5c.1.2.3.2.6.2s1.6-.4,2.5-1.4a25.6,25.6,0,0,0,2.6-3.6l2-4.1,1.2-2.7c.5-1.3.9-2.6,1.4-3.8a32.4,32.4,0,0,1,1.3-3.1,20.9,20.9,0,0,1,1.4-3,2.2,2.2,0,0,1,.5-.8l.6-.7a.8.8,0,0,1,.8,0l2,1a14.6,14.6,0,0,1,2.5,2,1.6,1.6,0,0,1,.3.9,2.4,2.4,0,0,1,0,1.2,5.2,5.2,0,0,1-.7,1.6,18.8,18.8,0,0,1-1,1.9q-.7,1.3-1.5,3a30,30,0,0,0-1.6,3.6,35.4,35.4,0,0,0-1.2,3.4,9.9,9.9,0,0,0-.3,2.8,1.3,1.3,0,0,0,.9,1.4,2.6,2.6,0,0,0,2.1-.7,11.2,11.2,0,0,0,2.1-2.2,29,29,0,0,0,1.9-2.9c.5-1,1-1.8,1.3-2.5a2.3,2.3,0,0,1,.5-.7,1.7,1.7,0,0,1,1.5-.4l.7.3a1.3,1.3,0,0,1,.1.6,2.9,2.9,0,0,1-.2.9c-.3.8-.8,1.7-1.4,3s-1.4,2.4-2.3,3.7a24.2,24.2,0,0,1-2.7,3.6A11.6,11.6,0,0,1,602.1,353.8Z"/><path class="cls-22" d="M619.7,327.8a72.6,72.6,0,0,0-2.7,7c-.8,2.5-1.5,5.2-2.2,8a16,16,0,0,0-.3,4.1h0c0,.1.1.1.1.2a1.6,1.6,0,0,0,.8,1.3,2.6,2.6,0,0,0,2.1-.7,7.4,7.4,0,0,0,2.1-2.2,29,29,0,0,0,1.9-2.9,20.5,20.5,0,0,0,1.3-2.5l.5-.7a1.9,1.9,0,0,1,1.5-.4q.9.1.9.9a2.9,2.9,0,0,1-.2.9c-.5,1-1.2,2.4-2.2,4.1a44.5,44.5,0,0,1-3.3,5.1l-.9,1a15.3,15.3,0,0,1-1.8,1.8h-.1a.2.2,0,0,0-.2.2l-1.3.7-1.6.4h-1.2a4,4,0,0,1-2.5-1.9,10.7,10.7,0,0,1-1.3-3.1,17,17,0,0,1-.5-4.1,12.1,12.1,0,0,1-.1-1.8c.1-.6.1-1.2.2-1.9s.3-2.5.5-3.6a21.3,21.3,0,0,1,.8-3.2,21.7,21.7,0,0,1,.8-3c1.1-3.2,2.3-6.2,3.4-8.9s2.3-5.4,3.5-7.8H594.3c-.7,0-1.1-.1-1.2-.4l-.3-.5a3.9,3.9,0,0,1,.3-2.7,3.3,3.3,0,0,1,1.6-1.7,6.2,6.2,0,0,1,2.4-.8,14.1,14.1,0,0,1,2.9-.1l10.2.3,10.2.5c.9-1.8,1.9-3.5,2.7-4.9s1.6-2.7,2.2-3.7,1.4-2.2,2-3.1a4.1,4.1,0,0,1,1-.9l1-.5a1.3,1.3,0,0,1,1.2.2l1.4,1.2a9.5,9.5,0,0,1,1.5,2,11.7,11.7,0,0,1,.9,2.4,3.5,3.5,0,0,1-.4,2.3l-1.5,2.1-2.6,3.4,7.6.3,10.3.3,11.5.4,11.6.3,10.3.3,7.8.2h.8l1.1.2.9.4a.7.7,0,0,1,.4.6c0,.2-.2.4-.8.6l-1.7.4-2.1.2h-1.6l-7.8.3H667.8l-11.6.2H626.5c-1.1,1.7-2.3,3.7-3.4,5.8A78.5,78.5,0,0,0,619.7,327.8Z"/><path class="cls-22" d="M634.1,328.8a1.4,1.4,0,0,1,.5.8,5.7,5.7,0,0,1-.1,1.2,8.2,8.2,0,0,1-.6,1.6l-1.1,1.9q-.6,1.3-1.5,3c-.5,1.1-1.1,2.3-1.6,3.6a35.4,35.4,0,0,0-1.2,3.4,7.2,7.2,0,0,0-.3,2.8,1.3,1.3,0,0,0,.9,1.4,2.3,2.3,0,0,0,2.1-.6,16,16,0,0,0,2.1-2.3,16.7,16.7,0,0,0,1.8-2.8c.6-1,1-1.9,1.4-2.5a1.3,1.3,0,0,1,.4-.7,1.8,1.8,0,0,1,1.6-.5c.6.2.8.5.8,1a2.2,2.2,0,0,1-.1.8l-1.5,3-2.3,3.8a42.2,42.2,0,0,1-2.7,3.6,10,10,0,0,1-3,2.5,4.6,4.6,0,0,1-1.9.8h-1.7l-1.7-.3a4.7,4.7,0,0,1-2.3-2.3,7.8,7.8,0,0,1-.7-3.5,17.2,17.2,0,0,1,.4-4.4,35.9,35.9,0,0,1,1.2-4.7,102.9,102.9,0,0,1,4.7-12.2,1.6,1.6,0,0,1,.6-.8,1.3,1.3,0,0,1,.6-.7.6.6,0,0,1,.7,0,6.5,6.5,0,0,1,2.1,1A7.9,7.9,0,0,1,634.1,328.8Zm-2.4-5.7a2.8,2.8,0,0,1-.6-2.5,6.8,6.8,0,0,1,.8-2.2l.8-1.2.7-1,.5-.8.9-.9.8-.5a1.3,1.3,0,0,1,1.1.3l1.2,1.1a11.8,11.8,0,0,1,1.3,1.8,5,5,0,0,1,.8,2,3.4,3.4,0,0,1-.3,2,9.4,9.4,0,0,1-1,1.4l-1.8,2.4a1.1,1.1,0,0,1-1.1.4,2.8,2.8,0,0,1-1.5-.4,11.9,11.9,0,0,1-1.5-.9Z"/><path class="cls-22" d="M656.5,339.8c-.6,1.4-1.5,3-2.5,4.9a26.3,26.3,0,0,1-3.5,5.2,17.9,17.9,0,0,1-4.4,3.9,6.6,6.6,0,0,1-5.3.6,5.3,5.3,0,0,1-2.5-1.5,9.3,9.3,0,0,1-1.5-2.6,11.4,11.4,0,0,1-.7-3.3,10.3,10.3,0,0,1,0-3.5,29.7,29.7,0,0,1,.6-4.3q.6-1.9,1.2-3.6a34.5,34.5,0,0,1,1.4-3.4,20.2,20.2,0,0,1,3.3-4.5,9.4,9.4,0,0,1,3.4-2.5,4.8,4.8,0,0,1,4.3.5,6.4,6.4,0,0,1,1.9-1.3,5.8,5.8,0,0,1,2.3-.2,4.2,4.2,0,0,1,2.9,1.6,7.2,7.2,0,0,1,1.1,3.2,12.7,12.7,0,0,1,0,3.9q-.3,2-.6,3.3a13.5,13.5,0,0,0,4.2-2,19.5,19.5,0,0,0,2.8-2.2l.8-.6a.7.7,0,0,1,.6-.1,1.6,1.6,0,0,1,.3.8v1a4.9,4.9,0,0,1-.8,1.8,12.5,12.5,0,0,1-3.9,3A15.2,15.2,0,0,1,656.5,339.8Zm-14,3.6a9.8,9.8,0,0,0-.6,3.8,4.6,4.6,0,0,0,.4,2,1.6,1.6,0,0,0,1,1.1,3.4,3.4,0,0,0,2.5-.5,11.8,11.8,0,0,0,2.5-2.5,28.2,28.2,0,0,0,2.3-3.6c.7-1.4,1.3-2.8,1.9-4.3a4.9,4.9,0,0,1-2.3-1.3,6.1,6.1,0,0,1-2.1-2.9,8.7,8.7,0,0,1-.3-3.6,10.5,10.5,0,0,0-2.1,3.1,23,23,0,0,0-1.7,3.9A33.7,33.7,0,0,0,642.5,343.4Zm8.5-11.3a5.1,5.1,0,0,0,.1,1.8,4.7,4.7,0,0,0,.7,1.2,2.5,2.5,0,0,0,1,.8,2,2,0,0,0,.8.4c.9-2.6,1.1-4.5.8-5.8a1.3,1.3,0,0,0-.7-.9,1.4,1.4,0,0,0-1.1-.2,2.4,2.4,0,0,0-1,.8A3.8,3.8,0,0,0,651,332.1Z"/><path class="cls-22" d="M666,340.6c1.1-1.9,2.3-3.9,3.6-5.8a54.7,54.7,0,0,1,4-5.2,19,19,0,0,1,3.8-3.4,3.5,3.5,0,0,1,3.5-.4l2,1.1a6.7,6.7,0,0,1,2,1.8,2,2,0,0,1,.5.9,5.7,5.7,0,0,1-.1,1.2,8.2,8.2,0,0,1-.6,1.6c-.3.4-.6,1.1-1.1,1.9s-.9,1.9-1.5,3-1.1,2.3-1.6,3.6a35.4,35.4,0,0,0-1.2,3.4,15.8,15.8,0,0,0-.3,2.8,1.3,1.3,0,0,0,.9,1.4,2.8,2.8,0,0,0,2.1-.7,11.2,11.2,0,0,0,2.1-2.2,29,29,0,0,0,1.9-2.9c.5-1,1-1.8,1.3-2.5s.2-.4.4-.7a2,2,0,0,1,1.6-.4.9.9,0,0,1,.8.9,2.8,2.8,0,0,1-.1.9l-1.6,3c-.6,1.2-1.4,2.4-2.2,3.7a33.8,33.8,0,0,1-2.7,3.6,10.2,10.2,0,0,1-3,2.6,4.9,4.9,0,0,1-1.9.7,4.8,4.8,0,0,1-1.7,0,9.7,9.7,0,0,1-1.8-.3,4.6,4.6,0,0,1-2.6-3.5,18.1,18.1,0,0,1,0-5.7,34.5,34.5,0,0,1,1.5-6.6c.8-2.2,1.5-4.2,2.2-6h-.1a40.4,40.4,0,0,0-4.9,5.7,77.4,77.4,0,0,0-4.3,7.1,58.7,58.7,0,0,0-4.3,9.7c-.1.4-.2.6-.4.7h-.5a6.6,6.6,0,0,1-2.8-.8,3.9,3.9,0,0,1-1.5-1.3,1.2,1.2,0,0,1-.5-1v-.5a25.8,25.8,0,0,1,.5-3.6c.2-1.3.5-2.6.8-3.9a23.4,23.4,0,0,1,.9-3.8q.4-1.8.9-3.3c.3-.8.5-1.6.8-2.3a13,13,0,0,0,.6-1.9,7.9,7.9,0,0,1,.5-1.3l.9-2.7.9-2.2.8-2h.1a1.3,1.3,0,0,1,.1-.5l.6-.7a.8.8,0,0,1,.9-.1,6.8,6.8,0,0,1,2,.8,7.6,7.6,0,0,1,2.3,1.8c0,.1.1.2.2.4l.2.4c0,.2.1.4.1.6a4.1,4.1,0,0,1-.6,2v.2h0l-.6,1.1c-.2.6-.5,1.1-.7,1.6l-.7,1.4-.5,1.3-.9,2.5C666.6,338.8,666.3,339.6,666,340.6Z"/></g></g></g></svg>